<svg xmlns="http://www.w3.org/2000/svg" width="32" height="24" fill="none" viewBox="0 0 32 24"><mask id="a" width="32" height="24" x="0" y="0" maskUnits="userSpaceOnUse" style="mask-type:luminance"><path fill="#fff" d="M0 0h32v24H0z"/></mask><g fill-rule="evenodd" clip-rule="evenodd" mask="url(#a)"><path fill="#E31D1C" d="M0 0h32v24H0z"/><path fill="#FECA00" d="m15.02 4.55-1.01.6.23-1.18-.85-.9 1.14-.04.49-1.11.48 1.1h1.13l-.83.95.25 1.19zm-8 5.05-2.88 1.56.65-3.03-2.4-2.26 3.25-.13 1.38-2.82 1.37 2.82h3.24l-2.39 2.4.72 3.02zm10-1.05-1.01.6.23-1.18-.85-.9 1.14-.04.49-1.11.48 1.1h1.13l-.83.95.25 1.19zm-1 4-1.01.6.23-1.18-.85-.9 1.14-.04.49-1.11.48 1.1h1.13l-.83.95.25 1.19zm-3 3-1.01.6.23-1.18-.85-.9 1.14-.04.49-1.11.48 1.1h1.13l-.83.95.25 1.19z"/></g></svg>