<svg xmlns="http://www.w3.org/2000/svg" width="32" height="24" fill="none" viewBox="0 0 32 24"><mask id="a" width="32" height="24" x="0" y="0" maskUnits="userSpaceOnUse" style="mask-type:luminance"><path fill="#fff" d="M0 0h32v24H0z"/></mask><g mask="url(#a)"><path fill="#3D58DB" fill-rule="evenodd" d="M0 0v24h32V0z" clip-rule="evenodd"/><mask id="b" width="32" height="24" x="0" y="0" maskUnits="userSpaceOnUse" style="mask-type:luminance"><path fill="#fff" fill-rule="evenodd" d="M0 0v24h32V0z" clip-rule="evenodd"/></mask><g mask="url(#b)"><path fill="#C51918" stroke="#F7FCFF" stroke-width="2" d="M33 5v14H-1V5z"/><path fill="#F7FCFF" fill-rule="evenodd" d="M10 17a5 5 0 1 0 0-10 5 5 0 0 0 0 10" clip-rule="evenodd"/><path fill="#C51918" fill-rule="evenodd" d="m10 13.87-2.72 1.89.96-3.17-2.64-2 3.3-.06L10 7.4l1.08 3.13 3.31.06-2.64 2 .96 3.17z" clip-rule="evenodd"/></g></g></svg>