<svg xmlns="http://www.w3.org/2000/svg" width="32" height="24" fill="none" viewBox="0 0 32 24"><mask id="a" width="32" height="24" x="0" y="0" maskUnits="userSpaceOnUse" style="mask-type:luminance"><path fill="#fff" d="M0 0h32v24H0z"/></mask><g mask="url(#a)"><path fill="#BF2714" fill-rule="evenodd" d="M0 0v24h32V0z" clip-rule="evenodd"/><mask id="b" width="32" height="24" x="0" y="0" maskUnits="userSpaceOnUse" style="mask-type:luminance"><path fill="#fff" fill-rule="evenodd" d="M0 0v24h32V0z" clip-rule="evenodd"/></mask><g mask="url(#b)"><path fill="#3D58DB" fill-rule="evenodd" d="M0-2v14h32V-2z" clip-rule="evenodd"/></g><path fill="#F7FCFF" fill-rule="evenodd" d="M0 0v24l18-12z" clip-rule="evenodd"/><mask id="c" width="18" height="24" x="0" y="0" maskUnits="userSpaceOnUse" style="mask-type:luminance"><path fill="#fff" fill-rule="evenodd" d="M0 0v24l18-12z" clip-rule="evenodd"/></mask><g fill="#FECA00" mask="url(#c)"><path fill-rule="evenodd" d="m13.6 10.92 1.28.5.76-.9.02 1.2 1.17.38-1.23.42.08 1.1-.81-.85-1.28.25.75-.97zm-12 6 1.18.52.86-.92-.08 1.22 1.27.36-1.33.44.18 1.07-.93-.76-1.16.17.65-.95zm0-12 1.3.48.74-.88.04 1.18 1.15.4-1.21.4.06 1.11-.8-.8-1.3.2.78-.98zm6.52 9.61a2.5 2.5 0 1 0 0-5 2.5 2.5 0 0 0 0 5" clip-rule="evenodd"/><path d="M8.27 13.78q.16.04.18.19l.1 1.68a.38.38 0 1 1-.75 0l.2-1.7c.02-.12.14-.2.26-.18m-1.66-.56a.22.22 0 0 1 .31.32l-1.1 1.34a.38.38 0 1 1-.52-.54zm1.19.71q.1.04.08.14l-.19.7a.16.16 0 0 1-.2.1.13.13 0 0 1-.08-.16l.23-.69c.02-.06.1-.1.16-.09m.84.08q.12 0 .16.09l.2.7a.13.13 0 0 1-.1.16.16.16 0 0 1-.18-.12l-.16-.7a.1.1 0 0 1 .08-.13m.93-.82a.2.2 0 0 1 .27 0l1.3 1.13a.38.38 0 1 1-.55.52L9.52 13.5a.22.22 0 0 1 .05-.31m-2.54.5q.1.09.04.19l-.34.64a.13.13 0 0 1-.2.04.2.2 0 0 1-.04-.21l.38-.61q.06-.09.16-.04m2.32-.06q.1-.05.16.04l.35.62a.16.16 0 0 1-.06.22.13.13 0 0 1-.17-.06l-.33-.65a.13.13 0 0 1 .05-.17M6.3 13q.1-.04.18.05.04.1-.04.16l-.63.35a.2.2 0 0 1-.2-.04l-.02-.02a.13.13 0 0 1 .06-.17zm3.86.04.65.35a.13.13 0 0 1 .04.19.2.2 0 0 1-.21.04l-.62-.38a.1.1 0 0 1-.03-.15.14.14 0 0 1 .17-.05m-4.2-.78q.1-.02.14.08a.14.14 0 0 1-.1.16l-.7.2a.13.13 0 0 1-.16-.1.16.16 0 0 1 .12-.18zm-1.5-.72 1.68.17a.22.22 0 0 1 0 .44l-1.68.14a.38.38 0 1 1 0-.75m6.6.88a.16.16 0 0 1 .1.2c-.02.07-.1.1-.16.08l-.7-.23a.13.13 0 0 1-.08-.15q.04-.1.14-.09zm.87-.89a.38.38 0 1 1-.02.76l-1.66-.19a.22.22 0 0 1 0-.44zm-6.54-.42.7.23q.1.06.08.16-.04.1-.14.08l-.7-.19a.2.2 0 0 1-.1-.18v-.02q.05-.1.16-.08m5.7 0a.13.13 0 0 1 .16.1.16.16 0 0 1-.12.18l-.7.17a.1.1 0 0 1-.13-.09.13.13 0 0 1 .09-.15zm-5.34-.91.62.37q.08.06.03.16a.13.13 0 0 1-.17.04l-.64-.34a.13.13 0 0 1-.05-.2.2.2 0 0 1 .21-.03m-.64-1.25a.4.4 0 0 1 .57.05l1.2 1.32a.22.22 0 0 1-.32.3l-1.42-1.1a.4.4 0 0 1-.03-.57m5.47 1.3a.16.16 0 0 1 .21.05v.01q.05.12-.05.18l-.65.32a.13.13 0 0 1-.17-.04q-.05-.1.04-.16zm.02-1.2a.38.38 0 1 1 .52.53L9.8 10.6a.22.22 0 0 1-.31-.31zm-4 .25q.11-.04.18.06l.32.66q.04.1-.05.17-.1.04-.15-.04l-.36-.63a.2.2 0 0 1 .05-.2zm3.25-.05h.02q.1.1.04.22l-.38.6a.1.1 0 0 1-.16.05.14.14 0 0 1-.04-.18l.35-.64a.13.13 0 0 1 .17-.05M8.21 7.8a.4.4 0 0 1 .37.44l-.18 1.6a.22.22 0 0 1-.26.19.2.2 0 0 1-.18-.2l-.13-1.6a.4.4 0 0 1 .38-.43m.71 1.13q.1.05.08.16l-.23.7a.13.13 0 0 1-.15.08q-.1-.04-.09-.14l.2-.7a.16.16 0 0 1 .19-.1m-1.4-.09q.12 0 .17.12l.17.7a.1.1 0 0 1-.09.14.14.14 0 0 1-.15-.1L7.41 9a.13.13 0 0 1 .1-.16"/></g></g></svg>