<svg xmlns="http://www.w3.org/2000/svg" width="32" height="24" fill="none" viewBox="0 0 32 24"><path fill="#FF6230" fill-rule="evenodd" d="M0 0h32v24H0z" clip-rule="evenodd"/><path fill="#FECA00" fill-rule="evenodd" d="M0 0v24L32 0z" clip-rule="evenodd"/><path fill="#fff" fill-rule="evenodd" d="m26.33 5.2.51.31-.47.27c.42 0 1.38-.03 1.62-.23l.05-.04c.18-.15 1.9-.68 1.9-.68h-1.07c-.59 0-.87.1-1.14.32l-.05.04c-.16.13-.25.16-.56.16l-.06.04.05-.1q.34 0 .77-.4c.03-.03.2-.1.4-.17.43-.15 1.02-.37 1.02-.5h-.48l.01-.02-.29.03-.33.03q-.4.05-.67.28l-.1.1.52-1.1a3 3 0 0 1 .31-.53l.29-.4q.19-.3.19-.6s-1.16 1.16-1.24 1.34q-.14.29-.43.67c-.22.3-.5.68-.75 1.17M22.8 4.04l.2-.32a5 5 0 0 0-1.45-.61q-.24-.08-.28-.16c-.25-.4-.45-.54-.9-.54 0 0 .36.44.67.75-.5-.24-.66-.29-.83-.29 0 0 1.5 1.1 1.5 1.21h.39q0-.25-.28-.49l.18.07q.4.15.8.38m-2.92-1.17q-.39-.28-.64-.11l.75.6-.25-.03-.25-.03-.02-.02v-.01c-.11-.15-.24-.21-.54-.21q-.7-.02-.83.25s.9-.06 1.64.4c.3 0 .43.19.4.68l.39.03q.03-.46-.12-.73l.26.2q.3.18.36.3v.01l-.02.03.23.3q.27-.2.13-.52a1.3 1.3 0 0 0-.5-.44l-.46-.32zm-2.04 1.68q.44 0 1.2.35l.17-.35q-.84-.38-1.37-.38c-.61 0-1.1.18-1.1.55 0 .27.22.44.57.5 0 0-.18-.45-.18-.5q0-.02.15-.1.22-.07.56-.07m-.64.97-.05.38a5 5 0 0 0-1.54 0s.98-.46 1.6-.38m.5 2.03-.1-.36a2.2 2.2 0 0 0-1.31.96l.05-.09a4 4 0 0 1 1.12-.44 2.2 2.2 0 0 0-.64 1.48V9c.07-.21.44-.63.92-1.13l-.27-.25zm1.47 3.03.14-.35a2.2 2.2 0 0 0-1.62-.1l.1-.03c.22-.01.74.2 1.38.48m.13.54-.2.32a5 5 0 0 0-1.28-.72 2.2 2.2 0 0 1 1.48.4m-1.58-.38.1-.02q-.06 0-.1.02m-1.86-.29.36-.11a2.2 2.2 0 0 0-.88-1.25c.15.16.32.7.52 1.36m-1.8-.31-.3.23c-.4-.56-.75-1-.94-1.1.22.04.78.23 1.25.87m-1.34-.9.1.02q-.06-.03-.1-.02m11.39 1.5-.14.25.09-.04q.16.29.16.47c0 .22-.16.36-.38.36v-.47q-.08.02-.1.11l-.11-.25.14-.07q-.25-.1-.3-.02-.21.29-.42.45s-.09-.57.04-.73q.34-.42 1.02-.07m-4.42 3.8v-.47h-.75l-.13.01q-.1.04-.18-.01s-.54-.08-.51-.01c.02.04.23.2.44.34l-.05.05c-.12.16-.04.73-.04.73q.2-.17.43-.44l.01-.02c.03-.04.03-.05.18.02v.09c.03.18-.16.46-.16.46.23 0 .7 0 .7-.21q0-.12-.15-.28l-.14-.2.05-.06z" clip-rule="evenodd"/><path fill="#979797" d="m26.84 5.51.04.07.11-.07-.1-.06zm-.51-.32-.07-.03-.03.06.06.04zm.04.6-.04-.07-.25.14h.29zm1.62-.24-.04-.06zm.05-.04-.05-.06zm1.9-.68.02.08-.02-.15zm-2.21.32-.05-.06zm-.05.04-.05-.06zm-.56.16v-.07h-.04zm-.06.04-.07-.03-.12.22.22-.13zm.05-.1V5.2h-.05l-.02.04zm.77-.4-.06-.06zm.4-.17.03.07zm1.02-.5h.08v-.08h-.08zm-.48 0-.06-.04-.07.11h.13zm0 0 .07.03zm.01-.02-.06-.04zm0 0-.06-.05zm0 0 .03.07zm-.29.03v.08zm-.33.03.01.08zm-.67.28.05.06zm-.1.1-.07-.04.11.1zm.52-1.1.07.02zm.25-.45-.06-.04zm.06-.08-.06-.05zm.29-.4-.07-.04zm.19-.6h.07v-.18l-.12.13zm-1.24 1.34-.07-.03zm-.43.67.06.04zm-4.07-.29.06.04.04-.06-.06-.04zm-.2.32-.04.07.06.03.04-.06zm-.66-.73.03-.07zm-.87-.36.07-.04zm-.9-.54v-.07h-.15l.1.12zm.67.75-.03.07.09-.13zm-.83-.29v-.07H20l.18.13zm1.5 1.21h-.07v.08h.07zm.39 0v.08h.07V4.1zm-.28-.49.02-.07-.07.13zm.18.07.03-.07zm-2.76-.9-.04-.06-.09.05.08.07zm.64.1.05-.05zm.1.5-.01.07.06-.13zm-.49-.06.03-.07zm0 0-.03.07zm0 0-.05.06zm-.02-.02-.06.04zm0 0-.06.04zm0-.01-.07.04zm-1.37.04-.06-.03-.06.11h.13zm1.64.4-.04.06h.04zm.4.68h-.07v.07h.07zm.39.03v.07h.07v-.07zm-.12-.73.05-.06-.12.1zm.26.2-.04.06zm.36.3-.07.03zm0 0-.07.03zm0 .01h-.07zm-.02.03-.04-.06zm0 0-.05-.06-.06.05.04.06zm.23.3-.06.05.04.06.06-.05zm.13-.52-.06.04zm-.5-.44-.03.06zm-.31-.21-.04.06zm-.15-.11-.04.06zM19.05 4.9l-.03.06.07.03.03-.06zm.17-.35.06.04.04-.07-.07-.03zm-1.9.67-.01.08.13.02-.05-.12zm-.03-.6-.02-.06zm-.13 1.28-.02.07.08.01.01-.07zm.05-.38.08.01v-.07l-.07-.01zm-1.59.38-.03-.07.06.14zm1.98 1.3.07-.02-.02-.08-.07.03zm.11.36.03.07.07-.02-.02-.07zm-1.41.6h-.08l.15.03zm1.17-.53.05.05.2-.2-.27.08zm-.64 1.48-.07.04.14-.05zm.92-1.23.06.05.05-.05-.06-.05zm-.27-.25-.02-.07-.13.03.1.1zm1.84 2.61.07.03.03-.07-.07-.03zm-.14.35-.03.07.07.03.02-.07zm-1.48-.45-.05-.05.08.12zm1.4 1.3-.04.07.06.04.05-.06zm.2-.31.07.04.04-.06-.06-.04zm-1.57-.38-.05-.06.07.13zm-1.5-.4.02.07.07-.02-.02-.07zm-.36.11-.08.02.03.08.07-.03zm-.6-1.41v-.08l-.04.14zm-1.5 1.33-.05.04.04.06.06-.04zm.3-.23.05.06.06-.04-.04-.06zm-1.34-.9-.03-.07.02.15zM23.98 11l-.07-.03-.1.21.2-.1zm.14-.26.07.04.03-.07-.07-.04zm-.05.22.06-.03-.03-.07-.07.03zm-.22.83h-.07v.08h.07zm0-.47h.08v-.08h-.08zm-.21-.14-.04-.06-.07.03.04.07zm.14-.07.04.06.14-.07-.15-.06zm-.3-.02.06.05zm-.42.45h-.07l.02.14.1-.09zm.04-.73.06.04zm-3.4 3.27h.08V14h-.08zm0 .47v.07h.08v-.07zm-.88-.46-.01-.07zm-.18-.01.05-.06-.02-.01h-.02zm-.51-.01-.07.03zm.44.34.05.05.07-.07-.08-.05zm-.05.05.06.05zm-.04.73-.07.01.02.13.1-.08zm.43-.44-.06-.05zm.01-.02-.06-.05zm.18.02.07.02.02-.06-.06-.03zm0 .09h-.07zm-.16.46-.06-.04-.07.12h.14zm0 0v-.08zm.55-.5-.06.05zm-.14-.2-.06-.05-.03.04.02.05zm.05-.05v-.08h-.04l-.02.03zm7.44-9.04.04-.06-.51-.32-.04.06-.04.07.51.31zm-.47.27.03.07.48-.27-.04-.07-.03-.06-.48.27zm1.62-.23-.04-.06a1 1 0 0 1-.27.1l-.44.07c-.32.04-.66.05-.87.05v.15a9 9 0 0 0 1.35-.12 1 1 0 0 0 .32-.14zm.05-.04-.05-.06-.04.04.04.06.05.05.05-.03zm1.9-.68-.02-.07h-.02a29 29 0 0 0-1.91.7l.05.05.04.06.12-.06.24-.1a19 19 0 0 1 1.45-.48l.05-.02h.02zm-1.07 0v.08h1.07v-.15h-1.07zm-1.14.32.04.06c.26-.2.52-.3 1.1-.3v-.15c-.6 0-.9.1-1.2.33zm-.05.04.05.05.04-.03-.04-.06-.05-.06-.05.04zm-.56.16v.08q.23 0 .36-.04a1 1 0 0 0 .25-.15l-.05-.05-.05-.06-.2.12q-.1.03-.3.03zm-.06.04.03.06.07-.03-.04-.07-.04-.06-.06.03zm.05-.1-.07-.04-.05.1.07.04.06.03.05-.1zm.77-.4-.06-.06q-.41.4-.71.38v.15q.39 0 .82-.42zm.4-.17-.02-.07-.44.18.06.06.05.05.02-.01.09-.04.27-.1zm1.02-.5h-.07q0-.01 0 0l-.07.05-.24.12c-.2.1-.45.18-.66.26l.03.07.02.07c.21-.07.47-.17.67-.26q.16-.07.27-.14l.08-.07.05-.1zm-.48 0v.07h.48v-.15h-.48zm0 0v.07zv-.08zm0 0-.06-.04zl.07.03zm.01-.02-.06-.04-.01.02.06.03.07.04zm0 0-.06-.05zl.06.05zm0 0 .03.07h-.02l-.07-.03a.1.1 0 0 1 0-.09zl.06.05v-.01l.01-.02.01-.02-.01-.05q-.06-.04-.07-.03h-.02zm-.29.03v.08q.24-.01.32-.04l-.03-.07-.03-.07-.26.03zm-.33.03.01.08c.1-.02.16-.02.33-.03v-.08l-.01-.07-.34.03zm-.67.28.05.06q.25-.22.63-.26v-.08l-.02-.07q-.43.04-.7.3zm-.1.1.04.05q.06-.03.11-.1l-.05-.05-.05-.05-.1.09zm.52-1.1-.07-.03-.52 1.1.07.03.06.03.53-1.1zm.25-.45-.06-.04q-.16.22-.26.46l.07.03.07.02q.09-.2.24-.43zm.06-.08-.06-.05-.06.09.06.04.06.04.06-.08zm.29-.4-.07-.04-.28.4.06.04.06.04.29-.4zm.19-.6h-.08q0 .29-.18.56l.07.04.06.04q.2-.3.2-.64zm-1.24 1.34.07.03.07-.1.14-.17a18 18 0 0 1 .83-.87l.13-.13.04-.04h.01L28.75 2l-.05-.05h-.02q0 .03-.03.05l-1.12 1.18-.09.13zm-.43.67.06.04q.3-.37.44-.68l-.07-.03-.07-.03q-.13.29-.42.65zm-.75 1.17.06.04c.26-.5.53-.86.75-1.17l-.06-.04-.06-.05q-.35.45-.76 1.19zM23 3.73l-.06-.04-.2.32.06.04.06.04.2-.32zm-.86-.41-.02.07q.41.15.84.4l.04-.06.04-.06q-.44-.27-.87-.42zm-.59-.2.03-.07q.02.01.05.08a.1.1 0 0 1-.1.06h.02l.04.02.53.18.02-.07.03-.07-.53-.18-.05-.02h-.02s-.07.01-.1.06l.05.08zm-.28-.16-.06.04q.07.1.32.2l.02-.08.03-.07c-.17-.06-.22-.1-.24-.13zm-.9-.54v.08q.32 0 .49.1t.35.4l.06-.04.07-.04a1.3 1.3 0 0 0-.4-.44q-.23-.14-.56-.13zm.67.75.06-.06-.6-.66-.05-.05-.01-.02-.06.04-.06.05.06.07.61.68zm-.83-.29v.08c.15 0 .29.04.8.28l.03-.07.04-.07c-.51-.24-.68-.3-.87-.3zm1.5 1.21h.08l-.02-.05-.02-.03-.05-.05-.17-.16a16 16 0 0 0-1.2-.93l-.06-.04h-.01l-.05.05-.04.06.02.02.04.03 1.36 1.07.05.05v-.02zm.39 0v-.07h-.39v.15h.39zm-.28-.49-.05.06q.27.23.25.44h.15q0-.31-.3-.55zm.18.07.03-.07-.2-.07-.01.07-.03.07.19.07zm.8.38.04-.06a5 5 0 0 0-.81-.4l-.03.08-.02.07q.38.14.78.38zm-3.56-1.28.04.06a.3.3 0 0 1 .23-.04q.14.02.33.15l.04-.06.05-.06a1 1 0 0 0-.39-.18.4.4 0 0 0-.34.07zm.75.6.04-.06-.68-.55-.05-.04h-.01l-.05.05-.05.06.02.01.05.04.17.14.5.4zm-.25-.03v.07l.23.03.02-.07.02-.08-.27-.03zm-.25-.03-.02.07.27.03v-.15l-.22-.02zm0 0-.03.07zl.03-.07zm0 0-.05.06h.02zl.03-.07zm-.02-.02-.06.04.01.02.02.02.05-.07.04-.06v.01zm0 0-.06.04zl.06-.05zm0-.01-.07.04zl.06-.04zm-.54-.21v.07q.21 0 .31.05.1.03.16.13l.06-.04.07-.04a.5.5 0 0 0-.23-.2 1 1 0 0 0-.37-.05zm-.83.25.07.03q.05-.1.23-.16t.53-.05V3q-.36 0-.57.06-.23.05-.32.24zm1.64.4.04-.07a3 3 0 0 0-1.52-.4h-.16v.07l.01.07h.15l.38.03c.3.04.7.14 1.06.36zm.4.68h.08q.02-.37-.09-.57t-.4-.2v.16q.2 0 .27.12.09.12.07.49zm.39.03v-.08l-.38-.02v.07l-.01.08.38.02zm-.12-.73-.07.04q.15.24.11.68h.08l.07.01q.03-.46-.12-.77zm.26.2.04-.07-.25-.19-.05.06-.05.06.27.2zm.36.3.06-.04-.13-.15-.25-.18-.04.07-.04.06q.15.09.23.16l.1.1zm0 0 .07-.04zl-.07.04zm0 .01.08.02v-.05l-.01-.02zl-.07.03V4.2zm-.02.03.05.06.02-.02.03-.05-.07-.02h-.08l.01-.03v-.01q.02 0 0 0zm0 0 .04.06zl-.04-.06h-.01zm.23.3.06-.04-.24-.3-.06.04-.06.05.24.3zm.13-.52-.06.04q.06.12.03.23a.4.4 0 0 1-.15.2l.05.05.04.06q.15-.11.2-.28a.5.5 0 0 0-.04-.33zm-.5-.44-.03.06q.37.23.47.42l.06-.04.07-.03a1.4 1.4 0 0 0-.52-.48zm-.31-.21-.04.06q.16.12.32.21l.04-.06.04-.07-.32-.2zm-.15-.11-.04.06q.11.09.15.1l.04-.05.04-.06-.15-.11zm-.53-.38-.04.06.53.38.04-.06.04-.06-.52-.38zm-.84 2.03.03-.07a3 3 0 0 0-1.23-.36v.15q.4 0 1.17.34zm.17-.35-.07-.03-.17.34.07.04.07.03.16-.34zm-1.37-.38v.07q.5 0 1.33.38l.04-.07.03-.06a4 4 0 0 0-1.4-.4zm-1.1.55h.08q0-.21.28-.35.28-.12.74-.13V4.1c-.3 0-.6.05-.8.15q-.35.15-.37.48zm.57.5.01-.07a1 1 0 0 1-.37-.16.3.3 0 0 1-.13-.27h-.15q0 .24.18.39.16.14.45.19zm-.18-.5h-.07v.03l.01.03.08.24.06.16.02.05v.02h.01l.07-.03.07-.02v-.02l-.03-.05-.14-.4q0-.01 0 0zm.15-.1-.02-.06-.14.06-.04.04-.02.06h.15v.03h-.01.01l.1-.05zm.56-.07v-.08q-.34 0-.58.09l.02.07.03.07q.2-.08.53-.08zm-.7 1.35h.08l.06-.37h-.08l-.07-.02-.06.38zm-1.53 0 .03.07q.04-.03.21-.04l.39-.01c.29 0 .63.01.9.05v-.07l.02-.08a7 7 0 0 0-1.58 0zm1.6-.38v-.07c-.32-.05-.73.05-1.06.16l-.56.21h-.01l.03.08.03.06.04-.01.52-.2c.32-.1.7-.2 1-.15zm.38 1.67-.07.02.11.36.07-.02.08-.02-.12-.36zm-1.25.87.06.04c.12-.18.48-.63 1.21-.84l-.02-.07-.02-.07a2.3 2.3 0 0 0-1.3.9zm0 0-.05-.05q-.07.05-.08.14h.15l.03-.03zm-.05.09.07.03v-.02l.04-.06-.06-.04-.06-.04-.06.09zm1.17-.53-.02-.07q-.42.12-.72.24-.3.1-.43.22l.05.05.05.06q.1-.08.38-.2l.71-.23zm-.64 1.38h.07c.02-.21.1-.78.62-1.33l-.05-.05-.06-.05A2.3 2.3 0 0 0 16.75 9zm0 0-.07-.03q-.04.08 0 .17l.07-.04.06-.04.01-.04zm0 .1h.07V9h-.15v.1zm.92-1.23-.05-.05a16 16 0 0 0-.83.94l-.11.21.07.03.07.02q.02-.06.1-.17t.2-.26l.6-.67zm-.27-.25-.05.05.27.26.05-.06.05-.05-.27-.26zm.23-.07-.02-.07-.23.07.02.07.02.07.24-.07zm1.61 2.68-.07-.03-.14.35.07.03.06.03.15-.35zm-1.52-.13.02.07c.21-.07.77-.18 1.47.13l.03-.07.03-.07a2.3 2.3 0 0 0-1.57-.14zm0 0v-.08q-.08 0-.15.06l.05.05.06.05.04-.01zm-.1.03.03.07.03-.01.06-.02-.02-.07-.02-.08-.1.04zm1.48.45.03-.07a16 16 0 0 0-1.17-.45l-.24-.04v.15q.07 0 .2.03l.3.1q.36.13.85.35zm-.08.86.07.04.2-.32-.06-.04-.06-.04-.21.32zm-1.27-.72v.07l.18.07.29.15.76.49.04-.06.04-.07a16 16 0 0 0-1.07-.65l-.23-.07zm1.48.4.04-.06a2.3 2.3 0 0 0-1.53-.41l.01.07.01.07a2.2 2.2 0 0 1 1.43.4zm-1.58-.38.02.07h.02l.07-.02v-.07l-.02-.07-.1.01zm.1-.02.01-.07q-.07-.02-.16.03l.05.06.05.05h.04zm-1.6-.38-.02-.07-.37.11.03.07.02.07.36-.1zm-.88-1.25-.04.06c.18.12.63.48.85 1.21l.07-.02.07-.02a2.3 2.3 0 0 0-.9-1.3zm0 0 .06-.05q-.05-.07-.14-.08v.15l.03.03zm-.08-.05-.04.06.08.05.04-.06.04-.07-.09-.05zm.6 1.41.07-.02a16 16 0 0 0-.4-1.19l-.13-.2-.06.05-.05.05.1.17.12.3q.13.36.27.86zm-2.1-.08.05.06.3-.23-.04-.06-.05-.06-.3.23zm-.94-1.1-.04.06q.07.03.16.12l.21.24.56.72.06-.04.06-.05a16 16 0 0 0-.79-.97l-.19-.15zm1.25.87.06-.04a2.3 2.3 0 0 0-1.3-.91l-.01.07-.02.07c.21.05.75.24 1.2.85zm-1.35-.9-.01.08.09.01.02-.07.01-.07-.1-.02zm.1.02.03-.06q-.06-.05-.16-.03l.03.07.02.07.04.02zM23.98 11l.07.04.14-.26-.07-.04-.07-.03-.14.26zm.09-.04-.04-.07-.08.05.03.06.03.07.09-.04zm.16.47h.07q0-.21-.17-.5l-.06.03L24 11q.15.27.15.43zm-.38.36v.08q.2 0 .32-.12a.4.4 0 0 0 .13-.32h-.15q0 .14-.08.2a.3.3 0 0 1-.22.09zm0-.47h-.07v.47h.15v-.47zm-.1.11h.07l.01-.02.02-.01v-.16l-.07.02-.05.04a.2.2 0 0 0-.06.13zm-.11-.25-.07.04.1.2v.01h.15l-.01-.05-.02-.06-.09-.17zm.14-.07-.03-.07-.15.08.04.06.03.07.15-.08zm-.3-.02.06.05.04-.01.17.05.03-.07.03-.07-.23-.06q-.1 0-.16.07zm-.42.45.05.05q.2-.16.43-.45l-.06-.05-.06-.04a3 3 0 0 1-.4.43zm.04-.73-.06-.05-.08.22v.25l.02.3v.01h.08l.07-.01v-.09L23.1 11q.02-.11.05-.15zm1.02-.07.03-.07a1.3 1.3 0 0 0-.62-.16q-.3.02-.5.25l.07.05.06.04q.15-.18.37-.19.24 0 .56.15zm-4.42 3.34h-.07v.47h.15v-.47zm-.75 0v.07h.75V14h-.75zm-.13.01.02.08.1-.02V14l-.13.02zm-.18-.01-.05.05c.08.08.19.05.25.04l-.02-.08-.01-.07-.09.01h-.03zm-.51-.01.07-.04-.03.08h.03l.16.01.25.03h.01l.02-.07.01-.08h-.02l-.51-.02-.05.03a.1.1 0 0 0 0 .09zm.44.34.04-.07a3 3 0 0 1-.4-.3h-.01l-.07.03-.07.03.03.04.04.03.1.1.3.2zm-.05.05.06.05.04-.05-.05-.05-.05-.06-.06.06zm-.04.73.08-.01-.01-.1-.01-.43q0-.1.04-.14l-.06-.05-.06-.05-.07.22v.26l.02.28v.03zm.43-.44-.06-.05a3 3 0 0 1-.41.43l.04.06.05.06q.21-.18.44-.46zm.01-.02-.06-.05-.01.02.06.05.06.04.01-.02zm.18.02.03-.07-.16-.06-.08.02-.03.04.06.05.06.04q.02-.02 0 0h-.02l.03.01.08.04zm0 .09.07-.01v-.06l-.07-.02-.07-.02v.12zm-.16.46.07.04.03-.05.12-.29q.02-.08.01-.17h-.07l-.07.02-.02.12-.05.14-.07.14zm0 0v-.08zv.07zm.7-.21h-.07q.01.02-.04.06l-.16.05-.42.03v.14c.1 0 .29 0 .44-.02l.22-.08q.1-.05.11-.18zm-.15-.28-.06.04q.07.08.1.15.05.06.04.09h.15a.3.3 0 0 0-.05-.17l-.12-.16zm-.14-.2-.07.03.15.21.06-.04.06-.05-.14-.2zm.05-.06-.06-.05-.05.05.06.05.05.05.05-.05zm.3 0v-.08h-.3v.15h.3z"/><path fill="#fff" fill-rule="evenodd" d="M26.25 6.01h.5c.02.45-.04.83-.08 1.14q-.07.39-.05.64c.01.17-.39 1.46-.39 1.46a1 1 0 0 1-.1-.5l.06-.4.01-.07q.03-.23.01-.42l-.05-.99-.04.11q-.1.28-.39.48l-.23.16-.2.15v-.01l-.36.2c-.06-.1.3-.5.55-.78q.21-.23.24-.3.15-.45.41-.6v-.1l-.03.06c-.23.13-.29.2-.35.35l-.02.05c-.11.27-.29.45-.73.7l-.8.47s1.08-1.1 1.15-1.29l.02-.04c.1-.24.8-.68 1.11-.86z" clip-rule="evenodd"/><path fill="#979797" d="m26.25 6.01-.07-.04-.07.12h.14zm.5 0h.08v-.08h-.07zm-.08 1.14-.08-.01zm-.05.64h-.08zm-.39 1.46-.06.04.08.15.05-.16zm-.1-.5h.08zm.06-.4.07.02zm.01-.07h.07zm.01-.42.08-.01zm-.05-.99h.07l-.14-.03zm-.04.11-.08-.02zm-.39.48.05.06zm-.23.16.04.07zm-.2.15.06.05zm0 0 .07.01zm0 0 .07.01zm0-.01h-.08zm0 0h.07v-.14l-.11.07zm-.36.2-.07.04.04.07.07-.04zm.55-.78-.05-.05zm0 0 .06.05zm.24-.3-.07-.02zm.41-.6.04.06.04-.02v-.04zm0-.1h.07v-.25l-.13.22zm-.03.06.03.06h.02v-.02zm-.35.35.07.03zm-.02.05.07.03zm-1.52 1.17-.06-.05.1.11zm1.14-1.29.07.03zm.02-.04.07.03zm1.11-.86.07.04-.1-.1zm-.24.39v.07h.5v-.15h-.5zm.5 0h-.07q0 .67-.09 1.13h.08l.07.02q.09-.47.1-1.15zm-.08 1.14-.08-.01q-.06.37-.05.66h.08l.07-.01q-.01-.25.05-.63zm-.05.64h-.08l-.01.1-.04.18a15 15 0 0 1-.31 1.1l-.01.05v.01l.06.02.07.03v-.02l.02-.04a27 27 0 0 0 .37-1.43zm-.39 1.46.07-.03a1 1 0 0 1-.09-.46h-.07l-.08-.01a1 1 0 0 0 .1.54zm-.1-.5h.08l.05-.38-.07-.01-.08-.01-.05.4zm.06-.4.07.02.01-.09h-.07l-.07-.01-.02.08zm.01-.07h.07q.03-.22.02-.43h-.08l-.07.01-.01.4zm.01-.42.08-.01-.06-.98h-.15q.02.63.06 1zm-.1-.88.08.03.04-.11-.07-.03-.07-.03-.05.12zm-.38.48.05.06q.3-.21.4-.51l-.06-.03-.08-.02a1 1 0 0 1-.36.44zm-.23.16.04.07.24-.17-.05-.06-.05-.06-.22.16zm-.2.15.06.05q0-.02.18-.13l-.04-.07-.04-.06-.22.16zm0 0-.08-.01v.05a.07.07 0 0 0 .12.03v-.01h.02zl-.06-.05h.02l.07-.01.04.06v.01zm0 0-.08-.01zl.07.01zm0-.01h-.08zl.07.02v-.02zm0 0h-.08zh.07zm-.36.2.04.07.35-.21-.03-.06-.04-.07-.36.2zm.55-.78-.05-.05-.54.67-.04.1.01.1.07-.04.06-.03q0 .01 0 0l.03-.05.13-.2.39-.46zm0 0-.05-.05zl.06.05zm.24-.3-.07-.02-.01.02-.05.06-.16.19.05.05.06.04.16-.18.1-.13zm.41-.6-.04-.07q-.29.18-.44.65l.07.03.07.02q.15-.45.38-.57zm0 0h.08v-.1h-.16v.1zm-.03-.04.06.04.03-.06-.06-.03-.06-.04-.04.05zm-.35.35.07.03.1-.16.21-.16-.03-.06-.04-.07q-.18.1-.26.19l-.12.2zm-.02.05.07.03.02-.05-.07-.03-.07-.02-.02.04zm-.73.7.04.07c.45-.25.64-.45.76-.74l-.07-.03-.07-.03c-.1.25-.26.42-.7.67zm-.8.47.04.06.8-.46-.04-.06-.03-.07-.8.46zm1.15-1.29-.07-.03q0 .03-.06.1l-.14.16a17 17 0 0 1-.91 1h-.01l.05.06.05.05.01-.01.04-.04.12-.13.91-1 .08-.13zm.02-.04-.07-.03-.02.04.07.03.07.03.02-.04zm1.11-.86-.03-.07a8 8 0 0 0-.96.66 1 1 0 0 0-.19.24l.07.03.07.03q.03-.06.15-.19l.3-.23c.22-.16.47-.32.63-.4zm-.24.39.06.04.25-.4-.07-.03-.06-.04-.25.39z"/><path fill="#fff" d="M10.48 17.27c-.04-.06.5.01.5.02.08.07.19 0 .31 0h.76v.47h-.3l-.06.05c.11.19.3.36.3.48 0 .22-.48.22-.7.22 0 0 .18-.29.16-.47v-.08c-.18-.09-.16-.06-.2 0q-.21.27-.42.44s-.09-.57.04-.73l.05-.06a2 2 0 0 1-.44-.34"/><path fill="#fff" fill-rule="evenodd" d="m29.3 7.98-.16-.09q.13-.2-.23-.29-.45-.12-1.54-.06a5 5 0 0 0-1 .1h-.25c-.22-.03-.43-.15-.79-.47a3 3 0 0 0-.79-.53 3 3 0 0 0-1-.08h-.38v-.18h.38c.63-.02.8 0 1.07.09.25.08.5.25.85.56.34.3.51.4.68.42h.06c.03.01.07 0 .32-.03l.1-.01q.33-.06.7-.06c.02-.1.07-.33-.02-.38-.11-.07-.2-.18-.2-.18s.58-.11.63.07 0 .46 0 .46l-.1.02h.41c.02-.12.05-.32-.01-.37l-.15-.18s.44-.11.48.07 0 .46 0 .46l-.07.02q.42.01.67.08.56.16.35.56" clip-rule="evenodd"/><path fill="#979797" d="m29.14 7.9-.04-.03-.03.04.05.03zm.17.08-.03.05.05.02.02-.04zm-.4-.38-.01.05zm-1.54-.06v.05zm-1 .1v.04zm-.25 0v.05zm-.79-.47.03-.04zm-.79-.53.02-.04zm-1-.08v.05zm-.38 0h-.05v.06h.05zm0-.18v-.05h-.05v.05zm.38 0v-.06zm1.07.09-.02.04zm.85.56.03-.04zm.68.42V7.4zm.04 0v-.04zm.02 0-.01.06zm.32-.03.01.05zm.1-.01v-.05zm.7-.06v.05h.04v-.03zm-.02-.38-.02.04zm-.2-.18v-.05l-.08.02.05.06zm.63.07.05-.01zm0 .46.01.05h.04v-.04zm-.1.02V7.3v.1zm.41 0v.04h.05v-.04zm-.01-.37L28 7zm-.15-.18-.01-.05-.07.02.04.06zm.48.07.04-.01zm0 .46v.05h.04v-.04zm-.07.02v-.05.1zm.67.08-.01.05zm.18.47-.02.05.16.09.03-.05.02-.04-.17-.1zm-.23-.29-.01.05.14.05q.06.02.07.05l.01.04-.02.08.04.02.04.03.04-.12q0-.06-.03-.11l-.1-.08-.17-.06zm-1.54-.06v.05a6 6 0 0 1 1.53.06V7.6l.02-.05q-.45-.12-1.55-.06zm-.72.05v.05c.24-.03.45-.05.72-.05v-.1c-.28 0-.49.02-.73.05zm-.28.04v.05l.25-.03h.04s.04-.05.01-.1h-.02v.09h-.02c-.03-.05 0-.1 0-.1h.01-.03l-.25.05zm-.25 0v.06h.25v-.1h-.25zm-.79-.46-.03.04c.36.31.58.45.81.48v-.05l.01-.05c-.2-.03-.4-.14-.76-.46zm-.79-.53-.02.05c.22.08.44.22.78.52l.03-.04.03-.04c-.33-.3-.57-.45-.8-.53zm-1-.08v.05c.61 0 .77 0 .98.08l.02-.05.02-.04c-.24-.09-.41-.1-1.01-.09zm-.38 0v.06h.39V6.5h-.4zm0-.18h-.05v.19h.1v-.2zm.38 0v-.06h-.38v.11h.38zm1.07.09.01-.05c-.27-.1-.45-.1-1.08-.1v.1c.63 0 .8 0 1.05.1zm.85.56.03-.04a3 3 0 0 0-.87-.57l-.01.05-.02.04c.24.09.49.25.84.56zm.68.42V7.4c-.14-.02-.31-.11-.65-.41l-.03.04-.03.04c.33.29.52.4.7.43zm.04 0v-.04h-.03v.04l-.01.05h.03zm.02 0v-.04h-.02v.05l-.01.05h.02zm.32-.03v-.05l-.32.04v.05l-.01.05h.1l.24-.04zm.1-.01v-.05l-.1.01v.05l.01.05.1-.01zm.7-.06V7.3q-.37 0-.7.06v.1q.34-.06.7-.06zm-.02-.38-.02.04.02.04v.09q0 .12-.03.2l.05.01.05.02.03-.23v-.12l-.07-.1zm-.2-.18-.03.03.06.07.15.12.02-.04.03-.05-.19-.16zm.63.07.05-.01q-.05-.1-.15-.13l-.23-.01-.3.03v.05l.01.05h.03l.26-.03.2.01q.08.03.09.05zm0 .46.05.01v-.01a1 1 0 0 0 0-.47l-.05.01-.04.01q.03.15.01.29l-.01.15zm-.1.02.01.05.1-.02v-.05l-.01-.05-.1.02zm.41 0v-.06l-.4.01v.1h.4zm0 0h.05l.03-.21v-.11l-.06-.1-.03.05L28 7l.01.04v.09l-.01.2zm-.01-.37.03-.04-.13-.16-.05.02-.04.03.04.06q.04.07.12.12zm-.15-.18.01.05h.02l.2-.03.14.01q.05.02.06.05h.05l.04-.02q-.02-.1-.12-.12l-.18-.02-.23.03zm.48.07-.05.01a1 1 0 0 1 0 .4v.04l.05.01.05.01v-.48zm0 .46-.02-.04-.06.01.01.05.02.05.06-.02zm.6.1.01-.05q-.26-.06-.67-.08v.1q.4.01.65.08zm.35.56.04.03q.13-.22.02-.4-.11-.17-.4-.24l-.01.05-.01.05q.26.06.33.2.08.1-.02.29z"/><path fill="#979797" d="M21.77 3.76c.84-.38 1.19-.41 1.58-.25l.17.08c.26.12.49.17.83.17.54 0 .75.12.9.4l.03.06c.11.23.21.3.52.3q.87 0 1.42.27.15 0 .15.3 0 .09-.06.19l-.07.12-.1.11c-.14.2-.2.34-.2.52q0 .28-.3.35c-.15.04-.3.05-.64.04h-.2q-.22 0-.44-.08l-.15-.05a2 2 0 0 0-.86-.13q-.6.02-.3.43c.2.27.66.57 1.2.76q.77.3.47.79a1.6 1.6 0 0 1-.77.58q-.35.1-.51-.33c-.07-.2-.11-.48-.11-.73q-.01-.28-1.21-.27h-.81c-.43 0-.55-.05-.65-.27l-.07-.16-.11-.19q-.2-.24-.54.04c-.2.17-.36.42-.36.56q0 .07.03.13.06.16.37.41a10 10 0 0 0 .81.6l.62.48c.15.1.3.15.63.2q.2.04.59.08c.65.08 1.03.06 1.45-.05l.12-.03.11-.03q.17-.04.33-.04c.27 0 .4-.11.52-.33l.03-.07.03-.07.08-.13q.05-.07.27.02l.2.1c.03 0 .2.08.25.1l.25.12q.7.3.86 0 .15-.3.26-.18.06.06.14.34c.08.26.11.35.16.4q.12.14-.1.43l-.07.1c-.18.23-.2.26-.2.31 0 .15-.1.22-1.1.75a.5.5 0 0 1-.43.02q-.3-.12-.61-.44a4 4 0 0 1-.37-.44q-.09.05-.13.1-.18.17-.39.32a2.2 2.2 0 0 1-1.44.44q-.46-.04-.95-.23l-.6-.23q-.18-.05-.13.11c.06.2-.11.74-.54 1.88l-.04.09a8 8 0 0 0-.58 1.75c0 .4.31.47 1.88.47.4 0 .59-.01.67-.04q.09-.01.05-.13c-.03-.19.02-.32.24-.5q.2-.19.49-.23a1.6 1.6 0 0 1 1 .17l-.06.02.05.02-.33.2c-.32.2-.6.43-.62.52q-.01.07.27.15t.59.07q.9 0 .59.9-1.48-.47-1.95.02c-.15.16-.12.4.04.8l.07.17c.17.37.2.47.21.6q.03.27-.33.28c-.44 0-.72-.33-.97-.95l-.28-.7-.12-.2c-.78 0-2.12-.4-3.16-.88-.29-.13-.34-.35-.28-.83.04-.37.04-.5-.01-.62q-.1-.25-.56-.25c-.5 0-.67-.03-2.3-.39-1.2-.26-2-.38-2.86-.38-.89 0-1.22.47-1.08 1.21.1.58.51 1.22.73 1.22.13 0 .18-.06.23-.23.1-.33.13-.4.27-.56q.2-.25.61-.43.76-.3.56.1c-.11.2-.4.42-.55.42q-.04.07.05.14l.2.13.05.04 1 .4-.34 1.79h-.96q-.16 0-.52-.18l-.48-.25-.1-.06-.1.2q-.15.46-.05.88.04.19.15.34c.12.17.37.61.42.66.07.07.14.06.34-.08q.21-.17.35-.04l.17.15a.8.8 0 0 0 .56.18q.37 0 .4.26c.02.12.01.18-.09.6-.06.27-.09.45-.09.64q0 .3-.14.21a1 1 0 0 1-.23-.31l-.25-.53-.05-.11q-.1-.01-.13.02-.12.1-.13.38c0 .62-.06.79-.36.79h-2.09v-1.36c.06-.03.12.06.15.1.14.16.36.19.7 0 .34-.2.26-.53-.15-.92-.3-.3-.8-.6-.94-.6q-.14-.01-.14-.26-.02-.19.03-.54l.03-.19c.06-.45.05-.43.05-.5q-.12-.04-.24.03-.26.11-.66.36c-.53.33-1.14.78-1.5 1.1q-.34.3-.7.45c-.2.08-.38.13-.7.2-.48.12-.59.15-.83.23-.77.26-1.22.07-1.22-.33 0-.25.78-.82 1.62-1.25.2-.1.33-.2.56-.47.49-.54.82-.72 1.54-.72q.88-.02 1.17-.83c.13-.36.17-.72.17-1.24 0-.23-.03-.17.53-1.4l.24-.55q.3-.71.3-1.18 0-.58.68-.7a6 6 0 0 1 1.57-.03l.9.03h1.9q.11 0 .3.17l.35.36q.52.53 1.1.53.33 0 .39-.15.06-.13-.05-.35l-.14-.25-.2-.26-.03-.07-.22-.61a12 12 0 0 0-1.02-2.06c-.82-1.23-.44-2.32.83-2.32q.59 0 .66-.17c.04-.08 0-.15-.11-.4l-.07-.14-.06-.23q0-.47 1.32-.03.3.42 1.98-.34m1.56-.2c-.38-.17-.71-.13-1.54.24q-1.7.78-2.02.35-1.25-.42-1.25-.02 0 .09.05.21l.07.15c.13.25.16.33.11.43q-.08.2-.7.2c-1.22 0-1.6 1.04-.8 2.24q.2.3.38.62a12 12 0 0 1 .83 1.93l.04.13.03.06.05.06a3 3 0 0 1 .3.46q.11.24.04.38-.08.18-.43.18c-.42 0-.76-.18-1.13-.53l-.36-.37q-.17-.16-.27-.16h-1.9l-.89-.02a6 6 0 0 0-1.56.02q-.65.13-.65.66 0 .48-.3 1.2l-.23.55c-.55 1.21-.53 1.16-.53 1.38 0 .52-.04.89-.18 1.26q-.3.83-1.2.85c-.72 0-1.03.18-1.47.67-.28.3-.41.42-.62.53-.81.4-1.6.97-1.6 1.2 0 .36.42.54 1.16.29.25-.09.35-.12.83-.23.32-.07.5-.13.7-.2q.35-.16.69-.45a13 13 0 0 1 2.17-1.47l.21-.06q.1 0 .1.07l-.06.52-.05.72q0 .21.09.21c.16 0 .66.3.98.62.42.4.52.77.13.99-.36.2-.6.17-.76 0l-.06-.09v1.26h2.04c.26 0 .3-.15.3-.74q0-.3.16-.41a.3.3 0 0 1 .16-.07l.04.06.05.11.26.53q.13.24.2.3t.07-.18c0-.2.03-.38.1-.66.1-.4.1-.46.08-.58q-.02-.2-.35-.2a.8.8 0 0 1-.6-.2l-.16-.15q-.1-.11-.3.03c-.2.16-.3.18-.4.08-.05-.05-.3-.5-.42-.66a1 1 0 0 1-.16-.36 1.6 1.6 0 0 1 .13-1.07l.03-.07.07.01.1.06.47.25q.35.17.5.17h.92l.32-1.71-.71-.3-.25-.1-.26-.17-.12-.13q-.03-.08.1-.08c.13 0 .4-.22.5-.4q.2-.32-.49-.03-.4.17-.6.4c-.13.16-.16.23-.25.55-.06.2-.12.26-.28.26-.25 0-.67-.65-.78-1.25-.14-.77.21-1.27 1.13-1.27.87 0 1.66.12 2.88.39 1.61.35 1.78.38 2.28.38q.5 0 .6.28c.06.14.06.27.02.6-.06.5-.01.71.25.83 1.04.47 2.38.88 3.15.88q.09.05.16.21c.05.1.23.62.27.71.25.61.52.92.93.92q.31 0 .28-.23c0-.12-.04-.22-.2-.59l-.08-.17c-.16-.4-.2-.67-.02-.84q.5-.53 1.94-.02.29-.84-.55-.83a2 2 0 0 1-.6-.07q-.34-.08-.3-.2c.02-.1.3-.34.63-.55l.31-.18-.12-.05q-.41-.15-.81-.1a1 1 0 0 0-.47.22q-.28.24-.22.46.04.15-.08.18a8 8 0 0 1-2.16-.02q-.47-.09-.46-.45c0-.19.1-.47.59-1.77l.03-.09c.42-1.11.6-1.66.55-1.85q-.06-.22.18-.16l.6.23q.5.18.95.22.71.06 1.4-.43a4 4 0 0 0 .55-.47l.12.17.28.32q.3.32.6.43.22.08.4-.01c.92-.5 1.05-.59 1.05-.7 0-.07.02-.1.22-.35l.07-.1q.2-.27.1-.37a1 1 0 0 1-.15-.37c-.07-.24-.1-.32-.15-.36q-.06-.07-.18.15c-.13.25-.44.23-.92.03L27 8.8c-.6-.29-.63-.3-.66-.26l-.07.13-.03.07-.04.07q-.14.36-.56.35a1 1 0 0 0-.43.07l-.12.03c-.43.11-.8.14-1.47.06l-.6-.08a2 2 0 0 1-.64-.21l-.62-.48-.81-.6c-.22-.18-.34-.3-.39-.44l-.03-.14c0-.16.17-.42.38-.6q.38-.32.61-.02l.11.2.07.15c.1.2.2.25.6.25h.82c.83 0 1.26.07 1.26.31s.03.52.1.71q.14.4.45.3c.28-.09.62-.33.75-.56q.29-.44-.45-.71a3 3 0 0 1-1.22-.78c-.2-.3-.09-.5.34-.5.38 0 .62.04.88.13l.15.05q.21.07.42.07h.2c.34.01.48 0 .62-.03q.27-.07.27-.31c0-.2.07-.34.22-.54l.09-.12.07-.11.05-.17q0-.26-.1-.26a3 3 0 0 0-1.42-.25c-.33 0-.45-.09-.57-.34l-.03-.06c-.13-.26-.33-.37-.85-.37a2 2 0 0 1-.85-.18zm2.12 10.54q.05.04 0 .1v.02h-.03q-.01-.03-.07-.04l-.02-.02.05-.03-.04-.01q.08-.03.11-.02m-.04.05.02.01v-.01z"/><path fill="#fff" fill-rule="evenodd" d="m12.06 11.2-.4.01q.01.05.04.07h-.02l-.31-.03-.54-.03h-.18s-.41.21-.41.14c0-.05.38-.34.38-.34l.03-.01.14-.06q.23-.08.58-.08c.43 0 .68.07.69.33m-1.92 5.78-.36-.14-.77 1.3a1 1 0 0 1-.33.17l-.07.03-.27.11c-.4.16-1.04.43-1.04.64l1.17-.21q-.02-.06.23-.17l.07-.03.07-.03.4-.21q.43-.3.9-1.46m-2.71 1.1h.38c0 .55-1.02 1.03-1.48 1.16l.66-.47zM6 18.44l-.13-.33-.99.26c-.05 0-.09-.02-.2-.07-.33-.14-.55-.14-.82.12l-.06.05-.58.6-.04.02-.45.38c.17 0 .74-.1.91-.27l.48-.5c.15-.14.2-.14.4-.06.16.08.24.1.36.1q.33 0 1.06-.26l-.37.28c-.66 0-.79.04-.99.38l-.06.1a.3.3 0 0 1-.14.1l-.14.05c-.11.04-.25.08-.33.12q-.25.08-.49.26l-.09.06-.1.08q-.12.1-.15.19-.03.11-.16.12l-.84.24a4 4 0 0 0 1.37-.24l.12-.09.08-.05q.2-.15.4-.22l.3-.1.18-.07a1 1 0 0 0 .3-.22l.1-.14q.04-.1.09-.14c.07-.06.19-.06.54-.06q.7 0 .89-.64l-.38-.1zm5.19-5.72.39-.01c-.01-.26-.26-.33-.7-.33a2 2 0 0 0-.71.14h-.03s.55.23.74.23a1 1 0 0 1 .34.04zm.2.65-.4.01q0 .05.04.07H11l-.3-.03a1 1 0 0 0-.52.08l-.07.03-.17.03-.45.14.62-.49.15-.06q.18-.1.43-.11c.44 0 .68.07.7.33m-.69.67.4-.01c-.02-.26-.26-.33-.7-.33-.23 0-.9.49-.9.49h.07c.08 0 .2.02.25 0l.07-.03a1 1 0 0 1 .51-.08q.22 0 .31.02l.02.01zm.3.84-.4.01q0 .05.04.07h-.02a1 1 0 0 0-.32-.04c-.19 0-.74-.22-.74-.22l.03-.02.05-.02a2 2 0 0 1 .66-.11c.44 0 .68.07.7.33m-.88.67.39-.01c-.01-.26-.26-.33-.7-.33a2 2 0 0 0-.7.14l.21.05-.25-.04 1.08.26zm1.16-3.69c-.43 0-.49.02-.52.1v.01l-.02.04v.01l-.05.08s.02-.61.6-.61h.5v.37z" clip-rule="evenodd"/><path fill="#979797" d="M11.67 11.21v-.07h-.08v.08zm.39-.01v.07h.07v-.08zm-.36.08.05-.06zm0 0-.03.07zm-.02 0-.02.07zm-.85-.06v.08zm-.18 0v-.08h-.04zm-.03-.2.04.06.18-.14h-.22zm0 0 .03.07zm.03-.01-.03-.07zm.06-.03-.03-.07.05.14zm.08-.03-.02-.07zm-1.01 5.9.03-.08-.06-.02-.04.06zm.36.13.07.03.03-.07-.08-.03zM9 18.13l.05.06h.01v-.02zm-.18.11.03.07zm-.15.07.03.06zm-.07.03.03.07-.06-.14zm-.07.03-.03-.07zm-.2.08-.03-.07zm0 0 .03.07zm0 0-.03-.07zm-1.04.64h-.07v.09l.09-.02zm1.17-.21.02.07h.06v-.07zm.23-.17-.03-.07zm.07-.03.03.07-.06-.14zm.07-.03-.03-.07zm.16-.07-.03-.07zm.24-.14.04.06zm-1.43-.36h.08V18h-.07zm-.38 0V18h-.04l-.03.04zm-1.1 1.16-.05-.06.07.14zm.66-.47.05.06.02-.02zm-1.12-.66.07-.03-.02-.06-.07.02zm.13.33-.07.03.03.1.08-.06zm-1.12-.07v.07h.02zm-.2-.07.03-.07zm0 0 .02-.07zm-.82.12-.05-.06zm-.06.05-.05-.05zm-.58.6.04.06zm-.04.02V19h-.03l-.02.02zm-.45.38-.05-.06-.15.14h.2zm1.34-.73.05.06zm.05-.05.06.06zm.4-.05.02-.07zm0 0 .03-.06zm1.42-.16.05.06-.07-.13zm-.37.28v.07h.02l.02-.01zm-.99.38-.06-.03zm-.06.1-.06-.04zm-.14.1-.02-.07zm-.14.05-.03-.07zm0 0 .02.07zm-.33.12-.03-.08zm-.49.26.05.06zm-.09.06-.04-.06zm0 0-.04-.06zm0 0 .05.06zm0 0-.04-.06zm-.1.08.04.06zm-.15.19.07.03zm-.16.12v-.08H2.9zm-.84.24-.02-.07.02.14zm1.37-.24-.04-.06zm.12-.09-.04-.06zm0 0 .04.06zm0 0 .04.06zm0 0-.04-.06zm.08-.05L3.61 20zm.4-.22-.03-.07zm.3-.1.02.06zm0 0-.03-.08zm0 0-.03-.08zm0 0 .02.06zm0 0 .02.06zm0 0-.03-.08zm.18-.07.03.07zm.3-.22-.06-.05zm.1-.14.06.04zm0 0-.07-.04zm.09-.14.05.06zm.54-.06v.08zm.89-.64.07.02.02-.08-.07-.02zm-.38-.1.02-.07-.03-.01-.03.02zm5.5-5.68v.07h.08v-.08zm-.38.01v-.07h-.08v.07zm-.88-.26.02.07zm-.08.03-.03-.07.05.14zm-.06.03-.03-.08zm-.03 0-.02-.07zm0 0 .03-.06h-.03zm1.06.26.02-.07zm.01 0-.02.08zm0 .01.06-.06zm-.22.6v-.08h-.07v.08zm.4-.02v.07h.07v-.08zm-.36.08-.05.06zm0 0-.03.07zm-.03 0-.02.07zm-.76.03-.02-.07zm-.06.02-.03-.07.05.14zm-.07.03-.02-.07zm-.17.03v-.07h-.02zm-.45.14v.07h.03zm.62-.49-.02-.07zm.15-.06.03.07zm.83.88v.07h.08v-.08zm-.39.01v-.07h-.07v.08zm-1.2.15-.05-.06-.19.13h.23zm.07 0v.08zm0 0v.08zm0 0v-.07zm.25 0-.02-.07zm.07-.03-.03-.07.05.14zm.06-.02.03.07zm.76-.04-.02.08zm.02.01-.02.07zm0 0-.04.06zm-.12.78v-.07h-.08v.07zm.38-.01v.07h.08v-.08zm-.35.08.05-.06zm0 0 .02-.07zm-.02 0 .02-.08zm-1.06-.26.03-.07h-.03zm0 0-.02-.08zm.03-.02-.03-.07zm.05-.02-.02-.07.05.14zm.09-.03-.03-.07zm.78.9v.08h.08v-.08zm-.39.02v-.07h-.08v.07zm-.88-.26-.02-.07zm-.14.06.03.07zm.22.05.02-.07zm-.25-.04.02-.08-.03.15zm1.06.25.02-.07zm.02 0 .03-.06zm0 0-.03.08zm0 .01.05-.06zm.6-3.65-.06-.03zm0 0 .08.03zm-.01.04.07.04zm0 .01.06.04zm-.05.08h-.07l-.01.25.14-.21zm1.1-.61h.08v-.08h-.08zm0 .37v.08h.08v-.08zm-.12-.65v.08l.39-.02v-.15l-.4.02zm.03.07.05-.06v-.01h-.16q0 .08.06.13zm0 0-.03.07h.05a.1.1 0 0 0 .04-.12h-.01zl-.05.06-.02-.08.07-.05h.02zm-.02 0-.02.07h.01l.03-.07.02-.07h-.02zm-.31-.03v.07q.21 0 .29.03l.02-.08.02-.07a1 1 0 0 0-.33-.03zm-.54-.03v.08l.54.02v-.15l-.53-.02zm-.18 0v.07h.18v-.14l-.18-.01zm-.41.14h-.08q0 .04.03.07l.05.02.08-.01.15-.06.2-.1h.01l-.03-.07-.04-.06h-.01l-.32.14h-.02l.03.02.02.05zm.38-.34-.05-.06h-.01l-.05.04-.34.3-.01.06h.15v.02l.04-.04.26-.22.04-.03.01-.01zm0 0-.02-.08h-.01l-.01.01-.02.02s-.03.03-.01.07q.02.05.05.05h.02zv-.08h.02l.05.05a.1.1 0 0 1-.04.1zm.03-.01-.03-.07h-.02l.02.07.03.08.02-.01zm.06-.03.02.07h-.02c-.07-.04-.04-.13-.04-.13q.01 0 0 0h-.01l-.04.02.03.07.02.07.04-.02h.02l.01-.01s.04-.1-.04-.14h-.02zm.08-.03-.02-.07-.09.03.03.07.02.07q.05 0 .08-.03zm.58-.08v-.08q-.36 0-.6.1l.02.06.02.07q.23-.08.56-.08zm.69.33h.07a.4.4 0 0 0-.06-.2.4.4 0 0 0-.17-.13 1.4 1.4 0 0 0-.53-.08v.15q.32 0 .47.07.07.03.1.07a.2.2 0 0 1 .04.12zm-2.28 5.64-.03.07.36.14.03-.07.02-.07-.35-.14zM9 18.14l.07.03.76-1.29-.06-.04-.07-.03-.76 1.28zm-.18.1.03.07.2-.12-.05-.06-.04-.06-.18.1zm-.15.07.03.06.15-.06-.03-.07-.04-.07-.14.07zm-.07.03-.03-.07s-.04.1.06.14l.03-.02.04-.02-.03-.06-.03-.07-.04.02h-.03c.1.05.06.14.06.15zm-.07.03.03.07.07-.03-.03-.07-.03-.07-.07.03zm-.2.08.03.07.2-.08-.03-.07-.03-.07-.2.08zm0 0 .03.07zl-.03-.07zm0 0 .03.07zl-.03-.07zm-1.04.64h.08l.02-.04.06-.07.25-.16c.2-.11.46-.22.66-.3l-.03-.07-.03-.07-.67.3-.28.19-.09.1-.04.12zm1.17-.21v-.07l-1.18.2.01.08.02.07 1.17-.2zm.23-.17-.03-.07-.2.1q-.06.05-.07.14h.15l.02-.01.16-.09zm.07-.03-.03-.07-.07.03.03.07.03.07.07-.03zm.07-.03-.03-.07-.04.02-.03.01c.01 0 .1.06.06.14l-.03-.07-.03-.07c-.05.09.04.15.05.14h.01l.02-.01.05-.02zm.16-.07-.03-.07-.16.07.03.07.03.07.16-.08zm.24-.14-.04-.06-.23.13.03.07.03.06q.15-.06.25-.14zm.9-1.46-.07-.02q-.24.58-.46.93-.21.36-.41.49l.04.06.04.06q.23-.16.46-.53.22-.37.47-.96zm-2.33 1.1V18h-.38v.15h.38zm-1.48 1.16.02.08c.24-.07.61-.23.94-.44q.24-.15.41-.36a.7.7 0 0 0 .19-.44h-.15q0 .17-.15.35t-.39.33c-.3.2-.67.35-.9.41zm.66-.47-.04-.06-.67.47.05.06.04.06.67-.47zm.44-.7-.07-.03-.43.7.06.03.07.04.43-.7zm-1.56.04-.07.02.13.34.07-.03.07-.02-.13-.34zm-.99.26.02.07.99-.26-.02-.07-.02-.07-.99.25zm-.2-.07-.03.07q.14.07.23.07v-.15c-.03 0-.06 0-.17-.05zm0 0-.04.07h.01zl.03-.07zm-.82.12.05.05a.6.6 0 0 1 .35-.19q.15 0 .38.09l.03-.07.03-.07a1 1 0 0 0-.46-.1 1 1 0 0 0-.43.23zm-.06.05.05.06.06-.06-.05-.05-.05-.06-.06.06zm-.44.47-.05-.05.01-.01q.01-.02.07 0c.04.02.04.08.04.09v.01h-.01l.43-.45-.05-.06-.05-.05-.4.42-.04.04v.03q-.01.04.03.1h.07V19h.01zm-.14.12.04.07.16-.14-.06-.05-.05-.05-.13.11zm-.04.03v.07h.03l.01-.01.04-.02-.04-.07-.04-.06-.02.02h.02zm-.45.38.05.06.45-.39-.05-.05-.05-.06-.45.38zm.91-.27-.05-.06-.17.1q-.11.06-.25.09-.3.07-.44.07v.15a2 2 0 0 0 .75-.17l.22-.13zm.43-.46-.05-.05-.43.46-.02.03c.02.06.1.09.12.08v-.01l-.05-.05-.05-.06h.01c.02-.01.1 0 .12.07l-.02.03.05-.05.37-.4zm.05-.05-.05-.05-.05.05.05.05.05.06.06-.05zm.4-.05.02-.07-.25-.06q-.11.02-.22.13l.05.05.06.06q.1-.1.13-.09.03-.01.17.05zm0 0 .03-.06zl-.03.07h.01zm.36.1v-.07a1 1 0 0 1-.33-.1l-.03.08-.03.07c.16.07.26.1.4.1zm1.06-.26-.02-.07q-.74.27-1.04.26v.15q.36 0 1.09-.27zm-.37.28.04.06.38-.28-.05-.06-.04-.06-.38.28zm-.99.38.07.04q.13-.24.28-.29c.12-.05.3-.06.64-.06v-.15q-.48-.01-.7.07t-.35.36zm-.06.1.06.05.07-.1-.07-.05-.06-.03-.06.09zm-.14.1.03.07.1-.05.07-.07-.06-.05-.06-.04-.04.03-.06.04zm-.14.05.02.07.15-.05-.03-.07-.02-.07-.15.05zm0 0 .03.07zl-.03-.07zm-.33.12.02.07.33-.12-.02-.07-.03-.07-.33.11zm-.49.26.05.06q.23-.18.46-.25l-.02-.07-.03-.08q-.26.1-.5.28zm-.09.06.05.06.09-.06-.05-.06-.04-.06-.09.06zm0 0 .05.06zl-.04-.06zm0 0 .05.06zl-.04-.06zm0 0 .05.06zl-.04-.06zm-.1.08.04.06.1-.08-.04-.06-.04-.06-.1.08zm-.15.19.07.03q.02-.09.12-.16l-.04-.06-.05-.06q-.14.12-.17.21zm-.16.12v.07q.1 0 .16-.05l.07-.11-.07-.03-.07-.04-.03.07-.06.01zm-.84.24.02.07.84-.24-.02-.07-.02-.07-.84.24zm1.37-.24-.04-.06-.26.1-.38.07c-.28.04-.56.05-.69.05v.15a6 6 0 0 0 1.11-.13 1 1 0 0 0 .3-.12zm.12-.09-.04-.06-.12.09.04.06.04.06.12-.09zm0 0-.04-.06zl.04.06zm0 0-.04-.06zl.04.06zm0 0-.04-.06zl.04.06zm.08-.05L3.61 20l-.08.06.04.06.04.06.08-.05zm.4-.22-.03-.07q-.21.07-.41.22l.04.07.04.06q.2-.14.38-.21zm.3-.1-.03-.08-.3.1.03.08.02.07.3-.1zm0 0-.03-.08zl.03.07zm0 0-.03-.08zl.03.07zm0 0-.03-.08zl.03.07zm0 0-.03-.08zl.03.07zm0 0-.03-.08zl.03.07zm.18-.07-.03-.07-.18.06.02.07.03.07.19-.06zm.3-.22-.06-.05a1 1 0 0 1-.27.2l.03.07.03.07a1 1 0 0 0 .33-.24zm.1-.14-.07-.04-.09.13.06.05.06.05.1-.15zm0 0-.07-.04zl.07.04zm.09-.14-.05-.06q-.07.07-.11.16l.06.04.07.03.08-.11zm.54-.06v-.07h-.38a.4.4 0 0 0-.2.07l.04.06.05.06q.01-.02.12-.03l.37-.01zm0 0v-.07zv.08zm.89-.64-.08-.02a1 1 0 0 1-.28.44q-.2.15-.52.15v.15q.36 0 .6-.18.26-.19.35-.52zm-.38-.1-.02.07.38.1.02-.07.02-.08-.38-.1zm-.07.05.04.07.08-.06-.05-.06-.04-.06-.08.05zm5.58-5.73v-.08l-.4.02v.07l.01.08.39-.02zm-.7-.33v.07q.33 0 .48.06.07.04.1.08a.2.2 0 0 1 .04.12h.15a.4.4 0 0 0-.06-.2.4.4 0 0 0-.17-.13 1.4 1.4 0 0 0-.54-.08zm-.57.08.02.07q.23-.08.55-.08v-.15q-.34 0-.6.1zm-.08.03.02.07q.05 0 .08-.03l-.02-.07-.02-.07-.1.03zm-.06.03.02.07.04-.02h.02l.01-.01s.04-.1-.04-.14h-.02l.03.07.02.07h-.02c-.07-.04-.04-.13-.04-.13h-.01l-.04.01zm-.03 0 .03.07h.02l-.02-.07-.03-.08-.02.01zm0 0v-.07h.02l.05.05a.1.1 0 0 1-.03.09h-.01zl-.02-.07h-.01l-.01.01-.02.02a.1.1 0 0 0 .05.12zm.74.23v-.07l-.17-.03-.52-.18-.02-.01-.03.07-.03.07h.02a6 6 0 0 0 .75.23zm.32.03.02-.07a1 1 0 0 0-.34-.03v.15q.23 0 .3.03zm.01 0 .03-.06h-.02zl-.02.08h.01zm0 .01-.04.06v-.01l-.02-.02a.07.07 0 0 1 .05-.1h.04zl-.02.07h.03a.08.08 0 0 0 .05-.13zm-.02-.07h-.08q0 .08.06.13l.05-.06.05-.06v-.01zm-.2.66v.08l.4-.02v-.07l-.01-.08-.39.02zm.04.07.04-.06v-.01h-.15q0 .08.06.13zm0 0-.03.07h.05a.1.1 0 0 0 .04-.1l-.02-.03zl-.05.06-.01-.01-.01-.02a.07.07 0 0 1 .08-.1zm-.03 0-.02.07H11l.02-.07.03-.07h-.02zm-.3-.03v.07q.2 0 .28.03l.02-.08.03-.07a1 1 0 0 0-.34-.03zm-.46.06.03.07q.15-.06.42-.06v-.15q-.29 0-.47.07zm-.06.02.02.07.07-.02-.03-.07-.02-.07-.07.02zm-.07.03.03.07.04-.02h.02l.01-.01h.01c.03-.09-.05-.14-.06-.14h-.01l.03.07.02.07c-.02 0-.1-.05-.07-.13h.01-.01l-.04.02zm-.17.03v.08q.1 0 .2-.04l-.03-.07-.02-.07-.15.03zm-.45.14.03.07.45-.13-.03-.08-.02-.07-.45.14zm.62-.49-.02-.07h-.02l-.01.02-.03.01-.28.23-.28.22-.02.01v.01h-.01v.02l-.02.03c0 .04.05.08.07.08v-.15q.05.02.08.08l-.01.04-.01.01.02-.01.06-.06.51-.4zm.15-.06-.03-.07-.14.06.02.07.03.07.15-.06zm.43-.11v-.08c-.19 0-.34.07-.46.12l.03.07.03.07a1 1 0 0 1 .4-.1zm.7.33h.07a.4.4 0 0 0-.07-.2.4.4 0 0 0-.16-.13 1.4 1.4 0 0 0-.54-.08v.15q.32 0 .48.07.07.03.1.07a.2.2 0 0 1 .04.12zm-.3.66v-.08l-.39.02v.15l.4-.02zm-.69-.33v.07q.32 0 .48.07.07.03.1.07a.2.2 0 0 1 .04.12h.15a.4.4 0 0 0-.07-.2.4.4 0 0 0-.17-.13 1.4 1.4 0 0 0-.53-.08zm-.9.49.04.06.03-.02.62-.39.21-.07v-.15a1 1 0 0 0-.27.09 3 3 0 0 0-.65.4l-.02.01h-.01zm.07 0v-.07H9.5v.14h.07zm0 0v-.07zv.08zm0 0v-.07zv.08zm.25 0-.02-.07h-.23v.15h.21l.07-.01zm.07-.03.02.07c-.02 0-.1-.05-.07-.13h.02-.02l-.04.02.02.07.03.07.04-.02h.02l.02-.02c.03-.08-.05-.13-.06-.13h-.01zm.06-.02-.02-.07-.07.02.03.07.02.07.07-.02zm.45-.06V14q-.29 0-.47.07l.02.07.03.07q.15-.06.42-.06zm.31.02.02-.07a1 1 0 0 0-.33-.03v.15q.22 0 .3.03zm.02.01.02-.07h-.02l-.02.06-.02.08h.02zm0 0-.04.06-.01-.01-.01-.02a.1.1 0 0 1 .04-.1h.04zl-.02.07a.1.1 0 0 0 .1-.04v-.06l-.02-.02zm-.03-.07h-.07q0 .08.06.13l.04-.06.05-.06v-.01zm-.1.85.01.08.39-.02v-.15l-.4.02zm.04.07.05-.06v-.01h-.16q0 .08.06.13zm0 0-.03.07h.03l.07-.04-.01-.08h-.01zl-.05.06-.01-.01-.01-.02a.07.07 0 0 1 .07-.1h.01zm-.02 0-.02.07.03-.07.03-.07h-.02zm-.32-.04V15q.23 0 .3.03l.02-.08.02-.07a1 1 0 0 0-.34-.03zm-.74-.22-.03.06.02.02.07.02.47.16.21.04v-.15l-.17-.03a4 4 0 0 1-.54-.2zm0 0-.02-.08h-.01l-.01.01-.02.02a.08.08 0 0 0 .06.12zv-.08h.02l.05.05a.1.1 0 0 1-.03.09h-.01zm.03-.02-.03-.07-.02.01.02.07.03.07h.02zm.05-.02.03.07h-.02c-.08-.04-.04-.13-.04-.13l-.05.01.03.07.02.08.04-.02h.02v-.01c.01 0 .05-.1-.03-.14h-.02zm.09-.03-.03-.07-.08.03.02.07.03.07.08-.03zm.57-.08v-.08q-.34 0-.6.1l.03.06.02.07q.23-.08.55-.08zm.7.33h.07a.4.4 0 0 0-.07-.2.4.4 0 0 0-.16-.13 1.4 1.4 0 0 0-.54-.08v.15q.33 0 .48.06.07.04.1.08a.2.2 0 0 1 .04.12zm-.49.66v-.08l-.39.02v.15l.4-.02zm-.7-.33v.07q.34 0 .48.07.08.03.1.07a.2.2 0 0 1 .04.12h.15a.4.4 0 0 0-.06-.2.4.4 0 0 0-.17-.13 1.4 1.4 0 0 0-.53-.08zm-.57.08.03.07q.21-.08.55-.08v-.15q-.35 0-.6.1zm-.08.03.03.07q.04 0 .08-.03l-.03-.07-.02-.07-.09.03zm-.06.03.03.07.03-.02h.03v-.01c.01 0 .04-.1-.03-.14h-.02l.02.07.03.07h-.03c-.07-.04-.04-.13-.03-.13H9.1l-.03.02zm.22.05.02-.07-.15-.04-.05-.01.01.01q.02 0 .02.07-.02.05-.04.06l-.03-.07-.02-.07q-.02-.01-.05.05 0 .07.02.07l.03.02h.02l.06.02.14.03zm-.25-.04-.01.07.31.06h.05a.1.1 0 0 0 .04-.1l-.05-.05-.06-.01-.02.07-.02.07.07.02-.02-.01-.03-.04a.1.1 0 0 1 .04-.1h.04l-.31-.06zm1.06.25.02-.07-.55-.13-.35-.09-.12-.03H9.1l-.02.07-.01.07h.04l.11.04.9.22zm.02 0 .02-.06h-.02l-.02.06-.02.08h.01zm0 0 .03-.06zl-.03.07zm0 .01-.05.06-.02-.08a.1.1 0 0 1 .08-.05h.01zl-.03.07h.03l.07-.04v-.08h-.02zm-.03-.07h-.07q0 .08.05.13l.05-.06.05-.06v-.01zm.64-3.58.07.03.01-.03.05-.01q.07-.02.4-.02v-.15q-.32 0-.44.02l-.1.05-.06.08zm0 0 .07.03zl-.07-.03zm-.02.04.07.04.02-.05-.07-.03-.07-.03-.02.04zm0 .01.06.04v-.01zl-.07-.03V12zm-.05.08.06.04.05-.08-.07-.04-.06-.03-.04.07zm.6-.61v-.08a1 1 0 0 0-.38.11 1 1 0 0 0-.2.24 1 1 0 0 0-.1.33h.08l.08.01v-.08l.07-.2.15-.18a.5.5 0 0 1 .3-.08zm.39 0v-.08h-.4v.15h.4zm0 0v.07h.11v-.15h-.11zm.11 0v.07zv-.08zm0 0h-.07v.37h.15v-.37zm0 .37v-.07h-.11v.15h.11zm-.5 0v.08h.39v-.15h-.4z"/><path fill="#fff" fill-rule="evenodd" stroke="#979797" stroke-width=".15" d="M27.22 4.81s-.55-.26-1.42-.26-.2-.77-1.45-.77c-1.24 0-.87-.77-2.57 0s-2 .35-2 .35-1.29-.43-1.29 0c0 .42.8.96-.44.96s-1.62 1.07-.81 2.28a12 12 0 0 1 1.25 2.73s.97 1.06 0 1.06c-.96 0-1.42-1.06-1.76-1.06h-1.9c-1.5 0-2.3-.66-3.4.89-1.09 1.55-.79 2.37-.79 2.92s0 2.1-1.36 2.1c-1.35 0-1.8.9-2.51 1.25s-1.19.9-1.19 1.16c0 .27.3.61 1.19.3.89-.3 1.48-.22 2.22-.87s2.45-1.78 2.45-1.48-.27 1.48 0 1.48 1.93 1.1 1.1 1.56-.83-.47-.83 0v1.21h2.06c.33 0 .33-.31.33-.76s.3-.45.3-.45.64 1.55.64.79c0-.77.53-1.47-.2-1.47-.74 0-.65-.61-1.07-.3-.41.3-.34.07-.79-.58-.44-.65 0-1.48 0-1.48s.83.5 1.12.5h.94l.32-1.75-.97-.4s-.58-.34-.29-.34c.3 0 1.12-.95 0-.47-1.12.47-.67 1.21-1.12 1.21-.44 0-1.69-2.47.35-2.47 2.03 0 3.9.76 5.16.76s.1 1.36.86 1.71a10 10 0 0 0 3.16.88c.3.24.45 1.85 1.36 1.85.9 0-.5-1.34 0-1.85.48-.51 1.93 0 1.93 0s.32-.88-.56-.88c-.36 0-.93-.1-.89-.25.07-.21 1.26-.98 1.09-.68 0 0-.93-.53-1.57 0-.65.54.38.68-.98.68s-1.39-.2-1.39-.68c0-.47.77-3.08.65-3.52-.12-.45.65.22 1.7.32 1.06.1 1.95-.9 1.95-.9s.83 1.21 1.42.9c.58-.32 1.07-.56 1.07-.73s.57-.63.38-.82c-.19-.2-.22-1.16-.52-.58s-1.69-.5-1.83-.33c-.14.18-.16.61-.68.61s-.7.32-2.02.16c-1.3-.16-1.05-.19-1.84-.77-.8-.58-1.22-.84-1.22-1.16 0-.3.66-1.03.94-.6.28.4.1.6.8.6s2.05-.08 2.05.3c0 .36.1 1.2.6 1.03.49-.17 1.43-.92.29-1.33-1.15-.4-1.77-1.23-.89-1.23.89 0 .94.26 1.45.26.52 0 1.12.07 1.12-.37s.42-.66.42-.94-.12-.28-.12-.28Z" clip-rule="evenodd"/><path fill="#000" d="M24.38 4.83a.3.3 0 0 1 .22.1h-.03a.3.3 0 0 0-.29.28q0 .1.08.18a.3.3 0 0 1-.27-.28c0-.15.13-.28.3-.28m.78-.57c.16 0 .29.13.29.29v.01l-.1-.01a.3.3 0 0 0-.29.26.3.3 0 0 1-.2-.26.3.3 0 0 1 .3-.29"/><path fill="#fff" fill-rule="evenodd" stroke="#979797" stroke-width=".15" d="M12.85 21.9c.59 0 1.07-.44 1.07-.98 0-.55-.48-1-1.07-1s-1.06.45-1.06 1c0 .54.47.99 1.06.99Zm2.13-5.09c.6 0 1.07-.44 1.07-.99s-.48-.99-1.07-.99-1.06.44-1.06 1c0 .54.47.98 1.06.98Zm9.93 1.04c.67 0 1.21-.55 1.21-1.23a1.2 1.2 0 1 0-2.42 0c0 .68.54 1.23 1.21 1.23Z" clip-rule="evenodd"/></svg>