<svg xmlns="http://www.w3.org/2000/svg" width="32" height="24" fill="none" viewBox="0 0 32 24"><mask id="a" width="32" height="24" x="0" y="0" maskUnits="userSpaceOnUse" style="mask-type:luminance"><path fill="#fff" d="M0 0h32v24H0z"/></mask><g mask="url(#a)"><path fill="#4EC7EE" fill-rule="evenodd" d="M0 0v24h32V0z" clip-rule="evenodd"/><mask id="b" width="32" height="24" x="0" y="0" maskUnits="userSpaceOnUse" style="mask-type:luminance"><path fill="#fff" fill-rule="evenodd" d="M0 0v24h32V0z" clip-rule="evenodd"/></mask><g mask="url(#b)"><path fill="#FFE402" d="M4.09 23.24c-.06.47.24.8.74 1.02.68.29 1.37.02 2-.68L6 22.84q-.41.45-.64.43.46-.33 1.18-.81l.23-.33c.18-.8-.4-1.22-1.26-1.22q-.79 0-1.19.32c-.43.36-.35.93.1 1.23l.1.07q-.38.3-.44.7"/><path stroke="#FFE402" stroke-width="1.1" d="M4.56 22.5s.13-.28.07-.43"/><path fill="#FFE402" d="M8.57 23.24c.06.47-.24.8-.74 1.02-.68.29-1.37.02-2-.68l.82-.74q.41.45.64.43-.46-.33-1.18-.81l-.23-.33c-.18-.8.4-1.22 1.26-1.22q.79 0 1.19.32c.43.36.35.93-.1 1.23l-.1.07q.38.3.44.7"/><path fill="#FFE402" d="m8.6 22.27-1 .45q-.24-.47-.07-.86l1 .43q.04-.1.07-.02M4.09.76c-.06-.47.24-.8.74-1.02.68-.29 1.37-.02 2 .68L6 1.16Q5.6.71 5.37.73q.46.33 1.18.81l.23.33c.18.8-.4 1.22-1.26 1.22q-.79 0-1.19-.32c-.43-.36-.35-.93.1-1.23l.1-.07q-.38-.3-.44-.7"/><path fill="#FFE402" d="M8.57.76c.06-.47-.24-.8-.74-1.02-.68-.29-1.37-.02-2 .68l.82.74q.41-.45.64-.43-.46.33-1.18.81l-.23.33c-.18.8.4 1.22 1.26 1.22q.79 0 1.19-.32c.43-.36.35-.93-.1-1.23l-.1-.07q.38-.3.44-.7M5.41 21.7c.63 0 1.34-.39 1.34-1.09 0-.42-.54-1.28-1.9-3.14q-.06-.06-.1-.06.13-.09.43-.1l.23.07v.73h1.44v-.55c0-.62-.91-1.35-1.67-1.35-.67 0-1.2.31-1.47.77-.27.45-.06.88.32 1.22a43 43 0 0 1 1.29 1.86h-.23c-.63.02-1.02.15-1.02.76 0 .67.65.88 1.34.88m-.37-1.37c.03-.02.07-.04.02.04zm.12.71a.5.5 0 0 1-.1-.66v-.01l.1.2-.06-.01c.02.01.07.07.07.26zm-.08-.49h.02zm.56.03.01.02z"/><path fill="#FFE402" d="M7.24 21.7c-.62 0-1.33-.39-1.33-1.09 0-.42.54-1.28 1.9-3.14q.06-.06.1-.06a1 1 0 0 0-.43-.1l-.24.07v.73H5.81v-.55c0-.62.91-1.35 1.67-1.35.67 0 1.2.31 1.47.77.27.45.06.88-.32 1.22-.57.78-1.01 1.43-1.3 1.86h.24c.63.02 1.02.15 1.02.76 0 .67-.65.88-1.35.88m.38-1.37c-.04-.02-.07-.04-.02.04zm-.12.71a.5.5 0 0 0 .1-.66v-.01l-.1.2.06-.01c-.02.01-.07.07-.07.26zm-.48-.46-.01.02z"/><path fill="#FFE402" d="M5.41 11.72c.63 0 1.34.39 1.34 1.09 0 .42-.54 1.28-1.9 3.14q-.06.06-.1.06.13.08.43.1l.23-.08v-.72h1.44v.55c0 .62-.91 1.35-1.67 1.35-.67 0-1.2-.31-1.47-.77-.27-.45-.06-.88.32-1.22.57-.79 1.01-1.44 1.29-1.86h-.23c-.63-.02-1.02-.15-1.02-.76 0-.67.65-.88 1.34-.88m-.37 1.37c.03.02.07.04.02-.04zm.12-.72a.5.5 0 0 0-.1.67l.1-.2-.06.02c.02-.01.07-.07.07-.26zm-.08.5h.02zm.56-.04.01-.02z"/><path fill="#FFE402" d="M7.24 11.72c-.62 0-1.33.39-1.33 1.09 0 .42.54 1.28 1.9 3.14q.06.06.1.06a1 1 0 0 1-.43.1l-.24-.08v-.72H5.81v.55c0 .62.91 1.35 1.67 1.35.67 0 1.2-.31 1.47-.77.27-.45.06-.88-.32-1.22a46 46 0 0 1-1.3-1.86h.24c.63-.02 1.02-.15 1.02-.76 0-.67-.65-.88-1.35-.88m.38 1.37c-.04.02-.07.04-.02-.04zm-.12-.72c.19.17.24.45.1.67l-.1-.2.06.02c-.02-.01-.07-.07-.07-.26zm-.48.46L7 12.8z"/><path fill="#FFE402" d="M5.41 12.28c.63 0 1.34-.39 1.34-1.09 0-.42-.54-1.28-1.9-3.14Q4.8 8 4.75 8q.13-.08.43-.1l.23.08v.72h1.44v-.55c0-.62-.91-1.35-1.67-1.35-.67 0-1.2.31-1.47.77-.27.45-.06.88.32 1.22.57.79 1.01 1.44 1.29 1.86h-.23c-.63.02-1.02.15-1.02.76 0 .67.65.88 1.34.88m-.37-1.37c.03-.02.07-.04.02.04zm.12.72a.5.5 0 0 1-.1-.67l.1.2-.06-.02c.02.01.07.07.07.26zm-.08-.5h.02zm.56.04.01.02z"/><path fill="#FFE402" d="M7.24 12.28c-.62 0-1.33-.39-1.33-1.09 0-.42.54-1.28 1.9-3.14Q7.87 8 7.9 8a1 1 0 0 0-.43-.1l-.24.08v.72H5.81v-.55c0-.62.91-1.35 1.67-1.35.67 0 1.2.31 1.47.77.27.45.06.88-.32 1.22-.57.79-1.01 1.44-1.3 1.86h.24c.63.02 1.02.15 1.02.76 0 .67-.65.88-1.35.88m.38-1.37c-.04-.02-.07-.04-.02.04zm-.12.72a.5.5 0 0 0 .1-.67l-.1.2.06-.02c-.02.01-.07.07-.07.26zm-.48-.46L7 11.2z"/><path fill="#FFE402" d="M5.41 2.3c.63 0 1.34.39 1.34 1.09 0 .42-.54 1.28-1.9 3.14q-.06.06-.1.06.13.09.43.1l.23-.07v-.73h1.44v.55c0 .62-.91 1.35-1.67 1.35-.67 0-1.2-.31-1.47-.77-.27-.45-.06-.88.32-1.22a43 43 0 0 0 1.29-1.86h-.23c-.63-.02-1.02-.15-1.02-.76 0-.67.65-.88 1.34-.88m-.37 1.37c.03.02.07.04.02-.04zm.12-.71a.5.5 0 0 0-.1.67l.1-.2-.06.01c.02-.01.07-.07.07-.26zm-.08.49h.02zm.56-.03.01-.02z"/><path fill="#FFE402" d="M7.24 2.3c-.62 0-1.33.39-1.33 1.09 0 .42.54 1.28 1.9 3.14q.06.06.1.06a1 1 0 0 1-.43.1l-.24-.07v-.73H5.81v.55c0 .62.91 1.35 1.67 1.35.67 0 1.2-.31 1.47-.77.27-.45.06-.88-.32-1.22a46 46 0 0 1-1.3-1.86h.24c.63-.02 1.02-.15 1.02-.76 0-.67-.65-.88-1.35-.88m.38 1.37c-.04.02-.07.04-.02-.04zm-.12-.71c.19.16.24.45.1.67l-.1-.2.06.01c-.02-.01-.07-.07-.07-.26zm-.48.46L7 3.39zm11.42 9.09c.38.06.35.4.35.4l-.63 1.46-.16-1.58s.06-.34.44-.28m1.1 0c.38-.06.45.27.45.28l-.14 1.57-.65-1.44c0-.01-.05-.35.33-.4m-2.67-.2c0-.02.16-.32.5-.15.35.17.22.5.22.5l-1.02 1.2zm3.73-.14c.35-.17.52.13.52.13l.32 1.55-1.04-1.2s-.15-.3.2-.48m-4.67-.69s.24-.25.52.01c.29.27.07.54.07.54l-1.33.85zm5.6.03c.28-.27.53-.03.53-.03l.76 1.39-1.35-.84s-.23-.25.05-.52m-2.47-6.49c1.87 0 3.39 1.61 3.4 3.6s-1.53 3.6-3.4 3.6-3.39-1.61-3.39-3.6 1.52-3.6 3.39-3.6m-3.8 5.39c.02 0 .3-.17.5.16.2.34-.1.53-.1.53l-1.51.43zm6.96.18c.2-.33.5-.19.5-.18l1.13 1.1-1.52-.4c-.01-.01-.3-.18-.11-.52m-7.29-1.42c.02 0 .34-.07.43.3a.4.4 0 0 1-.25.48l-1.57-.03zm8.13 0 1.4.73-1.58.05s-.34-.07-.25-.45c.09-.39.43-.33.43-.33m-8.1-1.28c.01 0 .35.02.32.4a.4.4 0 0 1-.37.4l-1.5-.5zm9.62.28-1.5.51s-.34.03-.37-.36a.4.4 0 0 1 .32-.43zm-1.65-.76a.35.35 0 0 1-.46-.24c-.14-.37.17-.5.17-.5l1.57-.2zm-7.58-.75s.32.12.18.49a.4.4 0 0 1-.47.26l-1.29-.91zm7.09-.42s-.27.22-.52-.08c-.24-.3.01-.54.01-.54l1.44-.66zm-6.38-.62s.27.22.03.52-.53.1-.53.1l-.95-1.26zm5.57-.34c0 .01-.2.3-.52.08s-.15-.52-.15-.52l1.18-1.05zm-4.6-.44s.2.29-.13.5c-.32.22-.53-.05-.53-.06l-.53-1.48zm3.55-.22s-.1.33-.47.22a.4.4 0 0 1-.3-.45l.83-1.35zm-2.4-.23s.1.33-.27.44a.4.4 0 0 1-.5-.2l-.07-1.58zm1.22-.08s0 .35-.4.35c-.38 0-.4-.35-.4-.35l.39-1.53z"/><path fill="#FFE402" d="m21.62 16.2.67.15.18.3.4-.2q.46.06.69 0c.01-.02.01-.02.52.11.12.88.12.88-.06.9l-.09.04-.07.03-.38.11L22 18c-1.55.34-2.76.51-3.41.4l-.3-.05-.12-.28c-.03-.07-.5-.3-1.34-.54l-.62-.18.76-.24-1.15-.45-.58.42-2.56-.72 2.52.05.33.14.29.1.3-.22.77.02.3.57.43-.32-.35-.25.67.01-.32.24.2.14 1.02-.38a9 9 0 0 0 2.3-.18l.22-.15zm-3.8.64q-.39.15-.8.26l-.04.01 2.74 1.08-.88-.63h-.1v-.06zm-1.6.51-2.3.7 1.33-.97zm2.53.15.09.06h.31l-.16-.22-.21-.02zm2.66-.5-.06.26.18.05.28-.14-.16-.22zm1.02-.63.34.06-.21.16zm-6.97.05-.04.06-.1-.07zm4.57-.48q-.57.28-1.18.52h-.9l.7-.52zm-2.75.51h-.38l-.2-.4h.01zm10.69-3.86q-1.21 1.95-5.1 3.86l-.1-.02 5.06-3.68-.43-.4q.82-.4 1.03-1.1l.12-.4.9-.66zm-16.64-.37v.29c0 .52.37.91 1 1.24l.44-.48q.98 1.16 2.33 1.87l-.66-.7 2.24 1.59-.54.4-.68-.01.48-.9q-.44-.17-.84-.38l.05.04-2.81-1.43h-.01l-.3.32 3.3 2.34h-.12a9 9 0 0 1-3.28-2.44l-2.78-3.3zm11.1 4.15-.14-.02-.24-.4h.12zm-5.48-.54.27.05-.5.17-.04-.02zm5.84.11h-.62l-.1-.16zm-3.15-.73-.99.73h-.67q-.39 0-.76-.06l.2-.06.44.11.03-.28q.7-.26 1.31-.54zm2.3.54.11.2h-2.02l.85-.45zm-8.54-3.53a6.6 6.6 0 0 0 3.71 3.5l-.16.1q-2.33-.54-3.6-3.57zm4.49 3.43-.46.17-.32-.1.84-.63zm8.62-2.96Q25.2 14.12 22 15.65l.07.13-.14-.03-.02-.05 3.88-2.83.49-.12zm-1.8-1.1-.09.08.29.38q-.23.32-.48.62l-1.33.85.7-.17q-1.23 1.22-2.92 2.15l-1.24-.29 5-3.68zm.45-1.12-.39-.32q-1.53 3.13-5.57 4.96l-.97-.22 8.05-5.93zm-11.25.12c.82 2.41 2.22 3.8 4.2 4.27l.12.03-.28.2.03-.24c-1.83 0-3.18-1.37-4.07-4.24l-.41.13v-.02zM12.15 12l.29.52.03.03-.15-.36.31.32-.13.07.1.06.1-.06.06.07-.07.05.06.04.06-.04 1.63 1.74-1.8-1.28.2-.38-.09-.04-.39.22-.06-.04.39-.22-.1-.06-.06.03-.1-.15h-.49l.12.22-.08-.05-.1-.17-.06.06-.49-.35v-.81q.15.43.55 1.1h.06l-.6-1.23v-.04l.07-.04zm-.17.7.23.35.15-.09.29.2-.06.11-.4.38-.7-.75.33-.32zm14.37-.23-.56.4-2 .5q.34-.34.64-.7l.64-.4.21.28q.48-.29.86-.57zm-14.05.45-.12.07-.12-.25zm.06-1.9q0 .1.24.54l-.17-.54.61 1.24h-.02l.02.05.02-.01.01.02h-.01q0 .04.03.07h.01l.06.11-.35.2-.05-.05.37-.2-.04-.06-.4.2-.06-.08.23-.11q-.35-.8-.54-1.39zm15.04 1.34q-.38.2-.89.34l.1-.12.6-.39zm.8-.8-.98.63-.19-.17q-.16.28-.42.56l-.17.1-.09-.21 1.66-1.21zm-15.7 1.02-.03-.03zm13.82-.98-.3.08.07.14-.7.66-.22-.28.13-.09 1.51-.97zm-13.45.79.2-.07-.02-.02zm.13-1.5-.09.03v.02l.1-.04.47 1.19h-.02l-.1.05.03.05.12-.04v.02l-.1.05-.02-.03-.06.02.02.04-.24.12-.03-.06.25-.1-.02-.04-.24.12-.02-.04.26-.1q-.24-.57-.44-1.22l.04-.01q-.05-.16-.05-.28h-.54l.12.37-.18-.35.05-.02h.01l-.18-.6.47-.14zm-.15 1.44.18-.07q-.27-.42-.42-.71zm12.32-.13-.1.06-.15-.21.07-.1zm-13.4-2.55v.99q0 .18.03.37h.07l-.07-.17.43-.17.1.33h-.46l.46 1.18-.17-.19q-.27-.54-.36-.98l-.38.19-.08-.08v.12h-.01l.01.04v.13a1 1 0 0 1-.07-.4V8.65zm1.54 2.5v.02l.06-.03zm.2-1.43-.1.04v.01l.1-.03.4 1.26-.4.15-.03-.06.4-.15q-.3-.67-.47-1.17l-.4.13v-.01l.4-.13q-.2-.58-.2-.88h-.55l-.05.02-.5-1.25V6.28zm-.63.23q.21.63.48 1.18l.1-.03.02-.01q-.45-.72-.56-1.15zM27.2 9.72a8 8 0 0 1-1.9 2.39l-.26-.23.06-.09.27.25 1.77-2.37zm-.3 1.65q-.33.3-.75.6l-.06-.15.23-.22q.35-.1.59-.23m-1.86.5-.05.09-.27-.35.01-.01zm.51-.82q-.21.38-.45.74l-.28-.25q.4-.25.73-.49m-.73.5-.09.05-.01-.01.07-.07zm.47-.98-.73.74.18.16-.08.06-.17-.15.68-.9zm-.5.95-.05-.05.5-.37zm3.77-.67-.54.4-.1-.16-.53-.17q-.07.24-.48.45.41-.38.7-.74l1.28-.82zM28 9.98q-.14.32-.39.65l-.79.51 1.05-.97-.66-.45.15-.38.08-.28 1.53-1.42zm-2.39.86-.36.26.32-.3zm1.66-1.33-.12.16-.17-.11q-.27.65-1.42 1.49l.22-.41.02-.05 1.27-1.19zm-.75-.38-.72 1.46-.23.21-.27-.23a4.4 4.4 0 0 0 1-1.55zm-14.25 1.53-.03.01-.03-.14zm-.15-2v1.22q0 .28.09.65l-.44-.88V7.78zm15.32.4-.37.34-.55-.27.26-.52-.48.35 1.97-2.63z"/></g></g></svg>