<svg xmlns="http://www.w3.org/2000/svg" width="32" height="24" fill="none" viewBox="0 0 32 24"><mask id="a" width="32" height="24" x="0" y="0" maskUnits="userSpaceOnUse" style="mask-type:luminance"><path fill="#fff" d="M0 0h32v24H0z"/></mask><g mask="url(#a)"><path fill="#D9071E" fill-rule="evenodd" d="M22 0h10v24H22z" clip-rule="evenodd"/><path fill="#006923" fill-rule="evenodd" d="M0 0h12v24H0z" clip-rule="evenodd"/><path fill="#fff" fill-rule="evenodd" d="M10 0h12v24H10z" clip-rule="evenodd"/><path fill="#A8AC71" fill-rule="evenodd" d="M13.06 8.34c-.11.46-.04.56.47.56q.04.02.12.16.08.17.15.2a2 2 0 0 0-.22 1q.02.21.12.55c.06.22.12.43.1.51-.04.14-.21-.01-.34-.13q-.12-.11-.16-.1c-.1.08-.14-.55-.17-.93l-.03-.27-.06-.25c-.03-.19-.06-.37-.28-.37h-.58v.42s.33 0 .33.8c0 .12.17 1.16.55 1.17-.23 0-.23.05-.22.07 0 .65.53.71 1.03.53.3-.1.62-.32.86-.58.33-.37.37-.84-.07-1.1q-.23-.13-.56-.15.04-.21-.04-.36-.06-.12 0-.18.73-.6.18-1.11-.08-.07-.14-.17c-.1-.11-.19-.23-.3-.27q.07-.16.22-.4l-.86-.5a1 1 0 0 0-.1.63q.02.15 0 .27m.93 2.67-.02.01zm-.46.31h.02zm-.43.34h-.03z" clip-rule="evenodd"/><path fill="#FCCA3D" fill-rule="evenodd" d="M14.38 7.91s-.68.54-.55 1.1c.12.57 1.48 0 1.31-.55s-.76-.55-.76-.55" clip-rule="evenodd"/><path fill="#8F4620" fill-rule="evenodd" d="M19.27 12.4s.92-2.74-.55-4.16-3.17-1.32-3.17-1.32-.49.36 0 .64c.5.28.29.54.29.54s-.82-.83-1.37-.34c-.54.48.51.4.4.77s-.58 2 .1 2.82c.7.82-.65.64-.37.64.27 0 1.24.19 1.24 0 0-.2.33.74.62.74s.5-.33.5-.33.41.33.66.33c.24 0 1.1-.21 1.1-.21l-1.62-1.37s.1-.6-.13-.73 1.84 1.15 2 1.57c.17.41.3.41.3.41" clip-rule="evenodd"/><path fill="#9FAB2F" d="M11.07 11.73s.15-.48.3-.52c.15-.02.44.23.44.23.52 2.9 1.78 4.02 3.86 4.02 2.12 0 3.4-.86 4.14-3.52 0 0 .4-.4.54-.36s.34.58.34.58c-.85 3.06-2.47 4.42-5.02 4.42-2.56 0-4-1.54-4.6-4.85"/><path fill="#2FC2DC" fill-rule="evenodd" d="M13.33 13.66s3 .63 4.2.63c1.18 0-1.05.97-1.91.97q-.57 0-1.38-.69c-.1-.08 0-.27-.3-.27-.4 0-.91-.1-.86-.16.04-.05.64-.07.58-.13z" clip-rule="evenodd"/><rect width="2" height="1.07" x="14.67" y="14.1" fill="#F9AA51" rx=".17"/><path fill="#259485" d="M12.18 12.14s0-.38.25-.58c.29-.23.56 0 .56 0 1.07 1.52 2.66 2.02 4.9 1.5 0 0 .66.22.7.36.03.18-.48.61-.48.61-2.6.61-4.62-.02-5.93-1.9"/><path fill="#FCCA3D" fill-rule="evenodd" d="M16.6 12.35s-1.22.64-.82.64 1.99.32 1.68 0c-.3-.32-.87-.64-.87-.64m-1.43-.76s-.23-.67-.71-.67-.35.55-.58.55.22.38.41.38c.2 0 .88-.26.88-.26" clip-rule="evenodd"/></g></svg>