<svg xmlns="http://www.w3.org/2000/svg" width="32" height="24" fill="none" viewBox="0 0 32 24"><mask id="a" width="32" height="24" x="0" y="0" maskUnits="userSpaceOnUse" style="mask-type:luminance"><path fill="#fff" d="M0 0h32v24H0z"/></mask><g mask="url(#a)"><path fill="#F7FCFF" fill-rule="evenodd" d="M0 0v24h32V0z" clip-rule="evenodd"/><mask id="b" width="32" height="24" x="0" y="0" maskUnits="userSpaceOnUse" style="mask-type:luminance"><path fill="#fff" fill-rule="evenodd" d="M0 0v24h32V0z" clip-rule="evenodd"/></mask><g mask="url(#b)"><path fill="#E31D1C" fill-rule="evenodd" d="M0 0v12h32V0z" clip-rule="evenodd"/><path fill="#F1F9FF" d="M3.85 6.37c0-4.21 3.65-4.52 5.02-4.18 0 0-2.83 1.1-2.83 4.18s2.83 4.22 2.83 4.22c-1.43.8-5.02 0-5.02-4.22m6.94 2h.91l-.67.76.2.95-.83-.49-.8.5.18-.96-.68-.72.92-.04.38-.89zm2.95-.05h.9l-.67.75.2.96-.82-.5-.81.5.18-.96-.67-.71.91-.04.39-.9zM9.76 6h.9l-.66.76.2.95-.83-.49-.81.5.18-.96-.67-.72.91-.04.39-.89zm5.35-.04h.92l-.68.75.2.96-.82-.5-.81.5.18-.96-.67-.71.91-.04.39-.9zm-2.63-1.9h.92l-.68.75.2.96-.82-.49-.81.49.18-.96-.67-.71.91-.04.39-.9z"/></g></g></svg>