<svg xmlns="http://www.w3.org/2000/svg" width="32" height="24" fill="none" viewBox="0 0 32 24"><mask id="a" width="32" height="24" x="0" y="0" maskUnits="userSpaceOnUse" style="mask-type:luminance"><path fill="#fff" d="M0 0h32v24H0z"/></mask><g mask="url(#a)"><path fill="#2E42A5" fill-rule="evenodd" d="M0 0v24h32V0z" clip-rule="evenodd"/><mask id="b" width="32" height="24" x="0" y="0" maskUnits="userSpaceOnUse" style="mask-type:luminance"><path fill="#fff" fill-rule="evenodd" d="M0 0v24h32V0z" clip-rule="evenodd"/></mask><g mask="url(#b)"><path fill="#F7FCFF" fill-rule="evenodd" d="M0 0v8h32V0z" clip-rule="evenodd"/><path fill="#C51918" fill-rule="evenodd" d="M0 16v8h32v-8z" clip-rule="evenodd"/><path fill="#2E42A5" fill-rule="evenodd" d="M13.74 5.04s-2.1-1-4.72-1-4.72 1-4.72 1 .23 4 .6 6.1a6 6 0 0 0 1.6 2.85 14 14 0 0 0 2.52 1.56c.5-.35 1.43-.5 2.63-1.56 1.2-1.05 1.5-2.84 1.5-2.84z" clip-rule="evenodd"/><path fill="#C51918" d="m13.46 4.9.88.44-.6 6.03a5 5 0 0 1-1.58 3.02q-.67.59-1.39.95l-1.39.72-.27.15-.1.08-.12-.06a13 13 0 0 1-2.81-1.83 6.3 6.3 0 0 1-1.69-3 55 55 0 0 1-.63-6.06l.79-.4c.15 2.64.34 4.76.59 6.16.14.82.86 2.1 1.52 2.69q.74.66 2.34 1.46l.22-.12s.73-.32.99-.45q.66-.35 1.29-.9a4.4 4.4 0 0 0 1.4-2.67z"/><path fill="#fff" fill-rule="evenodd" d="M5.54 11.02s.2.59.55 1.24q.77.2.93.02c.29-.32 1.32-.46 1.51-.19.12.18.54.3 1 .14h-.06l.38-.14.1-.04q.25-.1.42-.1.24-.03.48.09c.36.17.8.25 1.11.2a15 15 0 0 0 .63-1.22l-1.75-1.68-.7.76-1.16-1.66-.97 1.66-.74-.76zm1.02 2-.23-.34q.67.13.92-.15c.08-.1.32-.18.59-.22q.2-.02.34 0l.1.01v-.01c.2.3.77.45 1.3.26l-.05.01c.14-.04.4-.15.49-.18l.03-.01q.21-.09.35-.1.14 0 .32.07c.32.16.7.25 1.02.25l-.21.33a1.5 1.5 0 0 1-.97-.2 1 1 0 0 0-.43-.09 1 1 0 0 0-.47.15l-.33.14h.06c-.4.15-.74.03-.84-.13-.18-.3-1.1-.15-1.37.19q-.1.13-.62.01m.34.4.06.06c.9.88 2.02 1.31 2.02 1.31s1.33-.4 2.09-1.24l.19-.24q-.43-.02-.84-.24a.5.5 0 0 0-.27-.07 1 1 0 0 0-.29.09l-.02.01-.45.19.06-.02c-.47.2-.97.05-1.16-.25L8.21 13q-.12-.01-.29.01c-.23.04-.43.12-.5.2q-.15.22-.52.2" clip-rule="evenodd"/><path fill="#FECA00" fill-rule="evenodd" d="M7.15 5.89h-.7l.54-.51-.55-.54h.7l.3-.53.3.53h.7l-.51.5.46.55h-.65l-.3.55zm3.31 0h-.7l.54-.51-.54-.54h.7l.3-.53.3.53h.7l-.52.5.46.55h-.64l-.3.55zM8.6 7.57h-.7l.54-.51-.54-.54h.7l.3-.53.3.53h.7l-.52.5.46.55h-.65l-.3.55z" clip-rule="evenodd"/></g></g></svg>