<svg xmlns="http://www.w3.org/2000/svg" width="32" height="24" fill="none" viewBox="0 0 32 24"><mask id="a" width="32" height="24" x="0" y="0" maskUnits="userSpaceOnUse" style="mask-type:luminance"><path fill="#fff" d="M0 0h32v24H0z"/></mask><g mask="url(#a)"><path fill="#FECA00" fill-rule="evenodd" d="M0 0v24h32V0z" clip-rule="evenodd"/><mask id="b" width="32" height="24" x="0" y="0" maskUnits="userSpaceOnUse" style="mask-type:luminance"><path fill="#fff" fill-rule="evenodd" d="M0 0v24h32V0z" clip-rule="evenodd"/></mask><g mask="url(#b)"><path fill="#272727" d="M0 0h32v4H0z"/><path fill="#D74800" d="M0 8h32v4H0z"/><path fill="#272727" d="M0 12h32v4H0z"/><path fill="#D74800" d="M0 20h32v4H0z"/><path fill="#F7FCFF" fill-rule="evenodd" d="M16 18a6 6 0 1 0 0-12 6 6 0 0 0 0 12" clip-rule="evenodd"/><path fill="#272727" fill-rule="evenodd" d="m13.68 8.33-1.06.35 1.06.09s.17.41 0 .74q-.07.12-.3.33c-.42.4-1.1 1.05-1.1 2.1 0 1.43 2.73 2.07 2.73 2.07v.67s.32.2-1.5.2c-1.57 0-1.47.6-1.41.93l.01.13c0 .25.76-.26 1.11-.78.19-.27.97-.25 1.77-.18.06 0 .65 1.24.14 1.88-.21.27-.95.3-1.4.33-.24 0-.4.02-.39.05q.03.04.35 0c.25 0 .6-.03.92 0 .05 0-.14.17-.33.34-.2.17-.4.34-.34.34s.43-.2.77-.38c.28-.16.53-.3.57-.3q.38 0 .68.06c.34.05.6.08.76-.06.05-.04-.24-.11-.54-.18s-.6-.15-.56-.2c.28-.27.16-.85.07-1.31q-.07-.32-.07-.5c.02-.42.46-.2.8-.03q.25.13.36.14c.66 0-.15-.82-.6-1.28l-.1-.1c-.23-.24-.07-.2.29-.14.27.06.66.13 1.08.13.98 0 1.7-.32 1.45-1.18-.16-.57-1.06-.76-2-.96-.48-.1-.98-.21-1.39-.38-1-.4-.96-.97-.91-1.46l.01-.28c0-.53.9-1.18.9-1.18s-.4-.69-1.09-.69c-.68 0-.74.69-.74.69m1.85 6.25v-.5s.42-.02.56.33-.56.17-.56.17" clip-rule="evenodd"/><path fill="#D74800" fill-rule="evenodd" d="m13.08 6.71 1.01 1.2.53-.12-.26-1.21z" clip-rule="evenodd"/><path fill="#FFD018" fill-rule="evenodd" d="m14.4 6.42.06 1.8.86-.2.37-1.19z" clip-rule="evenodd"/><path fill="#D74800" fill-rule="evenodd" d="M13.58 9.44c.19 0 .34-.15.34-.34a.34.34 0 0 0-.34-.34c-.2 0-.35.16-.35.34s.16.34.35.34m2.2-2.68-1.01 1.2.21.5L16.13 8zm2.34 9.14s1.77-.8 1.77-1.9c0-1.11-2.88-2.32-2.88-2.32s-1.69.39-.93.9c.77.53 1.79.72 1.79 1.41 0 .7.28 1.35-.29 1.35s.54.55.54.55" clip-rule="evenodd"/><path fill="#FFFDFF" fill-rule="evenodd" d="M15.56 11.48s-.63.1-.6.21c.09.28.94.65 1.32.9.76.52 1.48.46 2.02.12.54-.33-2.74-1.23-2.74-1.23" clip-rule="evenodd"/></g></g></svg>