<svg xmlns="http://www.w3.org/2000/svg" width="32" height="24" fill="none" viewBox="0 0 32 24"><mask id="a" width="32" height="24" x="0" y="0" maskUnits="userSpaceOnUse" style="mask-type:luminance"><path fill="#fff" d="M0 0h32v24H0z"/></mask><g mask="url(#a)"><path fill="#F7FCFF" fill-rule="evenodd" d="M0 0h32v24H0z" clip-rule="evenodd"/><path fill="#FFDC17" fill-rule="evenodd" d="M0 0h14v24H0z" clip-rule="evenodd"/><path fill="#AF0100" d="m22.78 12.75-.34.02q.11 1.78.77 2.75c.7 1.04 1.61 1.85 2.23 1.85q.2 0 .13.18c-.07.18-.28.36-.54.43q-.68.18-3.02.17v.34q2.39 0 3.1-.19c.38-.1.68-.35.78-.64.12-.33-.06-.62-.45-.62-.46 0-1.3-.75-1.94-1.7q-.6-.9-.72-2.59m-1.63 0 .34.02a6 6 0 0 1-.77 2.75c-.7 1.04-1.61 1.85-2.23 1.85q-.2 0-.13.18c.07.18.28.36.54.43q.68.18 3.01.17v.34q-2.37 0-3.1-.19c-.37-.1-.67-.35-.77-.64-.12-.33.06-.62.45-.62.46 0 1.3-.75 1.94-1.7q.6-.9.72-2.59"/><path fill="#F4B300" fill-rule="evenodd" d="m28.07 6.8-9.14 7.12q-.48-.16-1.04-.16c-1.48 0-2.72.95-2.72 2.18s1.24 2.18 2.72 2.18q.26 0 .5-.04a1 1 0 0 1-.32-.42q-.1-.3.07-.48l-.25.02c-1 0-1.77-.6-1.77-1.26 0-.67.77-1.26 1.77-1.26s1.77.6 1.77 1.26q0 .3-.2.57l.08-.06c.31-.3-.4.92-1.01.92q-.2 0-.13.18c.06.17.25.34.49.42 1-.32 1.73-1.1 1.73-2.03q0-.58-.34-1.05l4.92-4.17.32.34.24-.21.82.6-.34.27.7.85 1.41-1.09.03-.01.08-.07-.7-.85-.34.26-.92-.64.11-.1-.3-.3.45-.38.24.25.25-.23.8.63-.34.26.7.85 1.21-.94.14-.07-.02-.02.19-.15-.7-.85-.4.3-.87-.66.12-.1-.2-.22.9-.76z" clip-rule="evenodd"/><path fill="#BFBFBF" fill-rule="evenodd" d="M15.69 14.73c.26 0 .47-.17.47-.38s-.21-.38-.47-.38c-.27 0-.48.17-.48.38s.21.38.48.38m.17 3.43c.26 0 .48-.17.48-.38s-.22-.38-.48-.38-.48.17-.48.38.22.38.48.38m4.71-.38c0 .2-.21.38-.47.38-.27 0-.48-.17-.48-.38s.21-.38.48-.38c.26 0 .47.17.47.38m2.81-1.84q.02-.84.67-1.43l-5.25-4.06-.06.04.15.14-.41.43-.22-.2-.8.62.3.24-.7.85-1.4-1.08-.04-.02-.08-.07.7-.85.34.26.92-.64-.11-.1.4-.4-.47-.36-.32.33-.24-.22-.78.63.31.25-.7.85-1.17-.9-.18-.11.02-.02-.19-.15.7-.85.4.3.87-.66-.12-.1.24-.25-.94-.73.6-.72 9.07 7.03a3 3 0 0 1 1.22-.23c1.48 0 2.72.95 2.72 2.18s-1.24 2.18-2.72 2.18q-.26 0-.5-.04a1 1 0 0 0 .32-.42q.1-.3-.07-.48l.25.02c1 0 1.77-.6 1.77-1.26 0-.67-.77-1.26-1.77-1.26s-1.77.6-1.77 1.26q0 .3.2.57l-.08-.06c-.31-.3.4.92 1.01.92q.2 0 .13.18c-.06.17-.25.34-.49.42-1-.32-1.73-1.1-1.73-2.03" clip-rule="evenodd"/><path fill="#F4B300" fill-rule="evenodd" d="M28.31 14.73c-.26 0-.47-.17-.47-.38s.21-.38.47-.38c.27 0 .48.17.48.38s-.21.38-.48.38m-.17 3.43c-.26 0-.48-.17-.48-.38s.22-.38.48-.38.48.17.48.38-.22.38-.48.38m-4.71-.38c0 .2.21.38.47.38.27 0 .48-.17.48-.38s-.21-.38-.48-.38c-.26 0-.47.17-.47.38" clip-rule="evenodd"/><path fill="#AF0100" fill-rule="evenodd" d="M21.74 11.8a.13.13 0 0 0-.13.13v.54h-.48a.13.13 0 1 0 0 .25h.48v7.15q.01.12.13.13H22q.12-.01.13-.13v-7.15h.74a.13.13 0 0 0 0-.25h-.74v-.54a.13.13 0 0 0-.13-.13z" clip-rule="evenodd"/><path fill="#979797" fill-rule="evenodd" d="m16.75 7.6.22.14q.72-1 1.39-.46c.77.61.84 2.1 0 2.6-.99.6-1.49 1.76-1.05 2.39.4.58 1.39.36 2.36-.37q.25-.2.49-.42l-.2-.15-.45.37c-.87.65-1.7.84-1.98.43-.35-.5.1-1.5.97-2.03 1-.6.93-2.3.02-3.01q-.9-.68-1.77.5m3.81 3.04.21.15q.57-.76.7-1.56l-.25-.04q-.13.75-.66 1.45m6.71-3.03-.21.14q-.73-1-1.4-.46c-.77.61-.84 2.1 0 2.6.99.6 1.5 1.76 1.05 2.39-.4.58-1.38.36-2.35-.37l-.5-.42.21-.15q.22.2.45.37c.86.65 1.69.84 1.98.43.34-.5-.1-1.5-.98-2.03-1-.6-.92-2.3-.01-3.01q.89-.68 1.76.5m-3.8 3.04-.22.15a4 4 0 0 1-.7-1.56l.26-.04q.11.75.65 1.45" clip-rule="evenodd"/><path fill="#AF0100" fill-rule="evenodd" d="M21.87 20.02c.29 0 .52-.12.52-.26s-.23-.26-.52-.26-.52.11-.52.26c0 .14.23.26.52.26m-.09-10.8c1 0 1.82-.14 1.82-.3 0-.17-.81-.3-1.82-.3-1 0-1.81.13-1.81.3s.81.3 1.81.3" clip-rule="evenodd"/><path fill="#F4B300" fill-rule="evenodd" d="M21.89 2.04h-.26v.3h-.25v.25h.25v.73h.26V2.6h.3v-.25h-.3zm-1.95 3.62-.12-.2.2-.07-.34-.74.23-.1.35.76.23-.06A.4.4 0 0 1 20.4 5c0-.18.14-.33.3-.33.17 0 .3.15.3.33q0 .08-.02.15.3-.04.64-.05v-.28h-.33v-.2h.33v-.25h.34v.24h.4v.2h-.4v.29q.39 0 .72.05L22.65 5c0-.18.13-.33.3-.33s.3.15.3.33q0 .15-.09.25l.28.08.25-.54.24.1-.25.54.06.02-.13.2-.02-.02-.04.1-.24-.11.04-.09q-.57-.2-1.39-.21v.08h-.34v-.08q-.97.03-1.68.33m-.12.22.06.1-.2.09.33.74-.2.07.13.2q.7-.3 1.68-.33v.09h.34v-.1q.81.03 1.39.23l-.04.08.24.1.04-.08h.02l.13-.18-.06-.03.25-.54-.24-.1-.25.54-.28-.08q.1-.1.1-.24c0-.19-.14-.34-.3-.34-.18 0-.31.15-.31.34q0 .08.03.14a6 6 0 0 0-.72-.05v-.28h.4v-.2h-.4V5.8h-.34v.24h-.33v.2h.33v.28q-.33.01-.64.05l.03-.14c0-.19-.14-.34-.3-.34-.17 0-.31.15-.31.34q0 .14.09.23l-.23.06-.3-.66a5 5 0 0 1 1.87-.33q1.1 0 1.78.33l.13-.19a4 4 0 0 0-1.9-.36 5 5 0 0 0-2.02.36m0 1.42.06.1-.2.1.33.73-.2.08.13.2q.7-.3 1.68-.34v.1h.34v-.1q.81.01 1.39.22l-.04.09.24.1.04-.09.02.01.13-.19-.06-.03.25-.54-.24-.1-.25.55-.28-.09q.1-.09.1-.24c0-.18-.14-.33-.3-.33-.18 0-.31.15-.31.33l.03.15a6 6 0 0 0-.72-.06v-.28h.4v-.2h-.4v-.24h-.34v.24h-.33v.2h.33v.29q-.33 0-.64.05l.03-.15c0-.18-.14-.33-.3-.33-.17 0-.31.15-.31.33q0 .14.09.23l-.23.06-.3-.66a5 5 0 0 1 1.87-.32q1.1 0 1.78.33l.13-.2a4 4 0 0 0-1.9-.35 5 5 0 0 0-2.02.35m0 1.43.12.2a5 5 0 0 1 1.9-.34q1.1 0 1.77.33l.13-.19a4 4 0 0 0-1.9-.36 5 5 0 0 0-2.02.36" clip-rule="evenodd"/></g></svg>