<svg width="150" height="150" viewBox="0 0 150 150" fill="none" xmlns="http://www.w3.org/2000/svg">
<path d="M112.5 0C133.211 0 150 16.7895 150 37.5C150 58.2105 133.211 75 112.5 75C133.211 75 150 91.7895 150 112.5C150 133.211 133.211 150 112.5 150C91.7895 150 75 133.211 75 112.5C75 133.211 58.2105 150 37.5 150C16.7895 150 0 133.211 0 112.5C0 91.7895 16.7895 75 37.5 75C16.7895 75 0 58.2105 0 37.5C0 16.7895 16.7895 0 37.5 0C58.2105 0 75 16.7895 75 37.5C75 16.7895 91.7895 0 112.5 0ZM75 58.5938C65.9391 58.5938 58.5938 65.9391 58.5938 75C58.5938 84.0609 65.9391 91.4062 75 91.4062C84.0609 91.4062 91.4062 84.0609 91.4062 75C91.4062 65.9391 84.0609 58.5938 75 58.5938Z" fill="#80F992"/>
</svg>
