<svg width="150" height="150" viewBox="0 0 150 150" fill="none" xmlns="http://www.w3.org/2000/svg">
    <path d="M150 75C150 116.421 116.421 150 75 150C33.5786 150 0 116.421 0 75C0 33.5786 33.5786 0 75 0C116.421 0 150 33.5786 150 75Z" fill="#373B3E"/>
    <path d="M22.5681 68.3168C22.5681 99.5262 46.2377 124.462 75 124.462C103.762 124.462 127.432 99.5263 127.432 68.3168H133.954C133.954 102.725 107.754 130.983 75 130.983C42.2457 130.983 16.0464 102.725 16.0464 68.3168H22.5681Z" fill="currentColor"/>
    <path d="M8.72208 67.2236C7.2527 66.1824 6.81119 64.0855 7.73595 62.5401C8.66071 60.9948 10.6016 60.5861 12.0709 61.6274C17.7046 65.6196 24.6694 64.1793 27.7631 59.0112C28.6878 57.4658 30.6287 57.0572 32.0981 58.0984C33.5671 59.1398 34.0089 61.2367 33.0842 62.782C27.951 71.3584 16.9831 73.0778 8.72208 67.2236Z" fill="currentColor"/>
    <path d="M141.278 67.2236C142.747 66.1824 143.189 64.0855 142.264 62.5401C141.339 60.9948 139.398 60.5861 137.929 61.6274C132.295 65.6196 125.331 64.1793 122.237 59.0112C121.312 57.4658 119.371 57.0572 117.902 58.0984C116.433 59.1398 115.991 61.2367 116.916 62.782C122.049 71.3584 133.017 73.0778 141.278 67.2236Z" fill="currentColor"/>
    <path d="M103.96 46.7822C103.96 56.2148 99.9704 63.8614 95.0491 63.8614C90.1277 63.8614 86.1382 56.2148 86.1382 46.7822C86.1382 37.3496 90.1277 29.703 95.0491 29.703C99.9704 29.703 103.96 37.3496 103.96 46.7822Z" fill="currentColor"/>
    <path d="M63.8613 46.7822C63.8613 56.2148 59.8718 63.8614 54.9504 63.8614C50.0291 63.8614 46.0396 56.2148 46.0396 46.7822C46.0396 37.3496 50.0291 29.703 54.9504 29.703C59.8718 29.703 63.8613 37.3496 63.8613 46.7822Z" fill="currentColor"/>
</svg>

